<svg width="117" height="126" viewBox="0 0 117 126" fill="none" xmlns="http://www.w3.org/2000/svg">
<g opacity="0.15">
<path d="M89.4096 18.5071C88.2645 19.6754 87.623 21.2462 87.623 22.8821C87.623 24.5181 88.2645 26.0888 89.4096 27.2571L99.4096 37.2571C100.578 38.4023 102.149 39.0437 103.785 39.0437C105.421 39.0437 106.991 38.4023 108.16 37.2571L131.722 13.6946C134.865 20.6396 135.816 28.3774 134.45 35.8768C133.084 43.3762 129.464 50.2812 124.074 55.6714C118.684 61.0616 111.779 64.6811 104.279 66.0475C96.7798 67.4139 89.0421 66.4624 82.0971 63.3196L38.9096 106.507C36.4232 108.994 33.0509 110.39 29.5346 110.39C26.0183 110.39 22.646 108.994 20.1596 106.507C17.6732 104.021 16.2764 100.648 16.2764 97.1321C16.2764 93.6158 17.6732 90.2435 20.1596 87.7571L63.3471 44.5696C60.2044 37.6247 59.2528 29.8869 60.6193 22.3875C61.9857 14.888 65.6052 7.98311 70.9954 2.5929C76.3856 -2.79732 83.2905 -6.41681 90.79 -7.78322C98.2894 -9.14964 106.027 -8.19808 112.972 -5.05536L89.4096 18.5071Z" stroke="#0076E5" stroke-width="6" stroke-linecap="round" stroke-linejoin="round"/>
</g>
</svg>
