<svg width="29" height="28" viewBox="0 0 29 28" fill="none" xmlns="http://www.w3.org/2000/svg">
<g clip-path="url(#clip0_2022_4171)">
<path d="M9.91667 1.396V5.97933M19.0833 1.396V5.97933M4.1875 10.5627H24.8125M9.91667 15.146H9.92813M14.5 15.146H14.5115M19.0833 15.146H19.0948M9.91667 19.7293H9.92813M14.5 19.7293H14.5115M19.0833 19.7293H19.0948M6.47917 3.68766H22.5208C23.7865 3.68766 24.8125 4.71368 24.8125 5.97933V22.021C24.8125 23.2866 23.7865 24.3127 22.5208 24.3127H6.47917C5.21351 24.3127 4.1875 23.2866 4.1875 22.021V5.97933C4.1875 4.71368 5.21351 3.68766 6.47917 3.68766Z" stroke="#C6E1FA" stroke-width="1.75" stroke-linecap="round" stroke-linejoin="round"/>
</g>
<defs>
<clipPath id="clip0_2022_4171">
<rect width="27.5" height="27.5" fill="white" transform="translate(0.75 0.25)"/>
</clipPath>
</defs>
</svg>
