<svg width="28" height="28" viewBox="0 0 28 28" fill="none" xmlns="http://www.w3.org/2000/svg">
<path d="M23.1667 8.27067H19.7292C19.1214 8.27067 18.5385 8.02923 18.1087 7.59946C17.6789 7.16969 17.4375 6.58679 17.4375 5.979V2.5415M3.6875 8.95817V23.6248C3.6875 24.1111 3.88065 24.5774 4.22447 24.9212C4.56829 25.265 5.0346 25.4582 5.52083 25.4582H16.75M10.5625 20.8748C9.95471 20.8748 9.37182 20.6334 8.94205 20.2036C8.51228 19.7739 8.27083 19.191 8.27083 18.5832V4.83317C8.27083 4.22538 8.51228 3.64249 8.94205 3.21272C9.37182 2.78295 9.95471 2.5415 10.5625 2.5415H18.5833L23.1667 7.12484V18.5832C23.1667 19.191 22.9252 19.7739 22.4955 20.2036C22.0657 20.6334 21.4828 20.8748 20.875 20.8748H10.5625Z" stroke="#125BA1" stroke-width="1.75" stroke-linecap="round" stroke-linejoin="round"/>
</svg>
