<svg width="21" height="20" viewBox="0 0 21 20" fill="none" xmlns="http://www.w3.org/2000/svg">
<path d="M13.7626 6.6665C15.0886 6.6665 16.3604 7.19329 17.2981 8.13097C18.2358 9.06865 18.7626 10.3404 18.7626 11.6665V17.4998H15.4292V11.6665C15.4292 11.2245 15.2536 10.8006 14.9411 10.488C14.6285 10.1754 14.2046 9.99984 13.7626 9.99984C13.3205 9.99984 12.8966 10.1754 12.584 10.488C12.2715 10.8006 12.0959 11.2245 12.0959 11.6665V17.4998H8.76255V11.6665C8.76255 10.3404 9.28934 9.06865 10.227 8.13097C11.1647 7.19329 12.4365 6.6665 13.7626 6.6665Z" stroke="#204160" stroke-width="1.5" stroke-linecap="round" stroke-linejoin="round"/>
<path d="M5.42922 7.49984H2.09589V17.4998H5.42922V7.49984Z" stroke="#204160" stroke-width="1.5" stroke-linecap="round" stroke-linejoin="round"/>
<path d="M3.76255 4.99984C4.68303 4.99984 5.42922 4.25365 5.42922 3.33317C5.42922 2.4127 4.68303 1.6665 3.76255 1.6665C2.84208 1.6665 2.09589 2.4127 2.09589 3.33317C2.09589 4.25365 2.84208 4.99984 3.76255 4.99984Z" stroke="#204160" stroke-width="1.5" stroke-linecap="round" stroke-linejoin="round"/>
</svg>
