<svg width="103" height="125" viewBox="0 0 103 125" fill="none" xmlns="http://www.w3.org/2000/svg">
<g filter="url(#filter0_d_1299_643)">
<path d="M45.5969 71.8467C45.297 71.8467 45.0323 71.7744 44.803 71.6297C44.5737 71.4815 44.3938 71.2734 44.2632 71.0052C44.1362 70.7336 44.0727 70.4108 44.0727 70.0368C44.0727 69.6628 44.1362 69.3435 44.2632 69.0789C44.3938 68.8143 44.5737 68.6114 44.803 68.4703C45.0323 68.3291 45.297 68.2586 45.5969 68.2586C45.9003 68.2586 46.1666 68.3291 46.396 68.4703C46.6253 68.6114 46.8035 68.8143 46.9305 69.0789C47.061 69.3435 47.1263 69.6628 47.1263 70.0368C47.1263 70.4108 47.061 70.7336 46.9305 71.0052C46.8035 71.2734 46.6253 71.4815 46.396 71.6297C46.1666 71.7744 45.9003 71.8467 45.5969 71.8467ZM45.5969 71.3122C45.7803 71.3122 45.9373 71.261 46.0679 71.1587C46.2019 71.0529 46.306 70.9047 46.3801 70.7142C46.4542 70.5201 46.4912 70.2943 46.4912 70.0368C46.4912 69.7792 46.4542 69.5587 46.3801 69.3752C46.306 69.1883 46.2019 69.0454 46.0679 68.9466C45.9373 68.8443 45.7803 68.7931 45.5969 68.7931C45.4169 68.7931 45.2599 68.8443 45.1258 68.9466C44.9918 69.0454 44.8877 69.1883 44.8136 69.3752C44.7395 69.5587 44.7025 69.7792 44.7025 70.0368C44.7025 70.2943 44.7395 70.5201 44.8136 70.7142C44.8877 70.9047 44.9918 71.0529 45.1258 71.1587C45.2599 71.261 45.4169 71.3122 45.5969 71.3122ZM49.4593 71.7832V68.3221H50.1949L50.7876 70.0156C50.8264 70.125 50.8617 70.2343 50.8935 70.3437C50.9252 70.4496 50.957 70.566 50.9887 70.693H51.0099C51.0416 70.566 51.0716 70.4496 51.0999 70.3437C51.1316 70.2343 51.1651 70.125 51.2004 70.0156L51.7931 68.3221H52.5235V71.7832H51.9572V70.2061C51.9572 70.0967 51.9607 69.9715 51.9678 69.8304C51.9784 69.6892 51.9907 69.5499 52.0048 69.4123C52.0189 69.2712 52.033 69.1477 52.0472 69.0418H52.026L51.7508 69.9203L51.1898 71.4657H50.777L50.2161 69.9203L49.9514 69.0418H49.9303C49.9444 69.1477 49.9567 69.2712 49.9673 69.4123C49.9814 69.5499 49.992 69.6892 49.9991 69.8304C50.0097 69.9715 50.0149 70.0967 50.0149 70.2061V71.7832H49.4593ZM55.0432 71.7832V68.3221H57.1283V68.8407H55.6571V69.7245H56.9007V70.2432H55.6571V71.2646H57.1812V71.7832H55.0432ZM60.9815 71.8467C60.671 71.8467 60.3923 71.7779 60.1453 71.6403C59.8984 71.5027 59.7043 71.3016 59.5632 71.037C59.4221 70.7689 59.3515 70.4443 59.3515 70.0632C59.3515 69.781 59.3921 69.5287 59.4732 69.3064C59.5579 69.0842 59.6743 68.8954 59.8225 68.7402C59.9742 68.5814 60.1489 68.4615 60.3464 68.3803C60.544 68.2992 60.7575 68.2586 60.9868 68.2586C61.2338 68.2586 61.4437 68.3027 61.6166 68.3909C61.7894 68.4791 61.9288 68.5814 62.0347 68.6978L61.7065 69.0736C61.6219 68.9889 61.5248 68.9219 61.4155 68.8725C61.3061 68.8196 61.1703 68.7931 61.008 68.7931C60.8033 68.7931 60.6234 68.8443 60.4682 68.9466C60.3129 69.0454 60.193 69.1883 60.1083 69.3752C60.0236 69.5622 59.9813 69.7863 59.9813 70.0474C59.9813 70.3084 60.0218 70.5342 60.103 70.7248C60.1841 70.9153 60.3023 71.0617 60.4576 71.164C60.6163 71.2628 60.8104 71.3122 61.0397 71.3122C61.1385 71.3122 61.232 71.2998 61.3202 71.2751C61.4084 71.2469 61.4807 71.2081 61.5372 71.1587V70.4125H60.8809V69.9098H62.0876V71.4339C61.9711 71.5503 61.8159 71.6491 61.6219 71.7303C61.4313 71.8079 61.2179 71.8467 60.9815 71.8467ZM64.0143 71.7832L65.1416 68.3221H65.8613L66.9885 71.7832H66.3429L65.8137 69.9415C65.7572 69.758 65.7025 69.5693 65.6496 69.3752C65.6002 69.1812 65.5508 68.9889 65.5014 68.7984H65.4803C65.4344 68.9924 65.385 69.1865 65.3321 69.3805C65.2827 69.5711 65.2298 69.758 65.1733 69.9415L64.6388 71.7832H64.0143ZM64.6811 70.8465V70.3649H66.3111V70.8465H64.6811Z" fill="#072542"/>
</g>
<g filter="url(#filter1_d_1299_643)">
<path d="M55.6955 26.8628C55.3956 26.8628 55.131 26.7905 54.9017 26.6458C54.6723 26.4977 54.4924 26.2895 54.3619 26.0214C54.2349 25.7497 54.1714 25.4269 54.1714 25.0529C54.1714 24.6789 54.2349 24.3596 54.3619 24.095C54.4924 23.8304 54.6723 23.6275 54.9017 23.4864C55.131 23.3453 55.3956 23.2747 55.6955 23.2747C55.9989 23.2747 56.2653 23.3453 56.4946 23.4864C56.724 23.6275 56.9021 23.8304 57.0292 24.095C57.1597 24.3596 57.225 24.6789 57.225 25.0529C57.225 25.4269 57.1597 25.7497 57.0292 26.0214C56.9021 26.2895 56.724 26.4977 56.4946 26.6458C56.2653 26.7905 55.9989 26.8628 55.6955 26.8628ZM55.6955 26.3283C55.879 26.3283 56.036 26.2772 56.1665 26.1748C56.3006 26.069 56.4047 25.9208 56.4788 25.7303C56.5529 25.5362 56.5899 25.3104 56.5899 25.0529C56.5899 24.7953 56.5529 24.5748 56.4788 24.3914C56.4047 24.2044 56.3006 24.0615 56.1665 23.9627C56.036 23.8604 55.879 23.8092 55.6955 23.8092C55.5156 23.8092 55.3586 23.8604 55.2245 23.9627C55.0904 24.0615 54.9864 24.2044 54.9123 24.3914C54.8382 24.5748 54.8011 24.7953 54.8011 25.0529C54.8011 25.3104 54.8382 25.5362 54.9123 25.7303C54.9864 25.9208 55.0904 26.069 55.2245 26.1748C55.3586 26.2772 55.5156 26.3283 55.6955 26.3283ZM59.0287 26.7993V23.3382H59.6426V26.2807H61.0821V26.7993H59.0287ZM63.9174 26.8628C63.7163 26.8628 63.5346 26.8346 63.3723 26.7781C63.2135 26.7217 63.0759 26.6317 62.9595 26.5082C62.8466 26.3848 62.7584 26.2242 62.6949 26.0267C62.6349 25.8291 62.6049 25.5909 62.6049 25.3122V23.3382H63.2188V25.3598C63.2188 25.6033 63.247 25.7956 63.3035 25.9367C63.3635 26.0778 63.4464 26.1784 63.5522 26.2383C63.6581 26.2983 63.7798 26.3283 63.9174 26.3283C64.0585 26.3283 64.182 26.2983 64.2878 26.2383C64.3972 26.1784 64.4819 26.0778 64.5419 25.9367C64.6054 25.7956 64.6371 25.6033 64.6371 25.3598V23.3382H65.2246V25.3122C65.2246 25.5909 65.1946 25.8291 65.1346 26.0267C65.0746 26.2242 64.9864 26.3848 64.87 26.5082C64.7571 26.6317 64.6195 26.7217 64.4572 26.7781C64.2984 26.8346 64.1185 26.8628 63.9174 26.8628ZM67.8986 26.7993V23.8568H66.8984V23.3382H69.5127V23.8568H68.5125V26.7993H67.8986ZM71.2004 26.7993V23.3382H71.8143V26.7993H71.2004ZM75.1496 26.8628C74.8497 26.8628 74.5851 26.7905 74.3558 26.6458C74.1264 26.4977 73.9465 26.2895 73.8159 26.0214C73.6889 25.7497 73.6254 25.4269 73.6254 25.0529C73.6254 24.6789 73.6889 24.3596 73.8159 24.095C73.9465 23.8304 74.1264 23.6275 74.3558 23.4864C74.5851 23.3453 74.8497 23.2747 75.1496 23.2747C75.453 23.2747 75.7194 23.3453 75.9487 23.4864C76.178 23.6275 76.3562 23.8304 76.4832 24.095C76.6138 24.3596 76.679 24.6789 76.679 25.0529C76.679 25.4269 76.6138 25.7497 76.4832 26.0214C76.3562 26.2895 76.178 26.4977 75.9487 26.6458C75.7194 26.7905 75.453 26.8628 75.1496 26.8628ZM75.1496 26.3283C75.333 26.3283 75.4901 26.2772 75.6206 26.1748C75.7547 26.069 75.8587 25.9208 75.9328 25.7303C76.0069 25.5362 76.044 25.3104 76.044 25.0529C76.044 24.7953 76.0069 24.5748 75.9328 24.3914C75.8587 24.2044 75.7547 24.0615 75.6206 23.9627C75.4901 23.8604 75.333 23.8092 75.1496 23.8092C74.9697 23.8092 74.8126 23.8604 74.6786 23.9627C74.5445 24.0615 74.4404 24.2044 74.3663 24.3914C74.2922 24.5748 74.2552 24.7953 74.2552 25.0529C74.2552 25.3104 74.2922 25.5362 74.3663 25.7303C74.4404 25.9208 74.5445 26.069 74.6786 26.1748C74.8126 26.2772 74.9697 26.3283 75.1496 26.3283ZM78.4828 26.7993V23.3382H79.1549L80.1922 25.2434C80.2557 25.3598 80.3156 25.4851 80.3721 25.6192C80.4321 25.7532 80.4885 25.8891 80.5414 26.0267H80.5626C80.5485 25.8397 80.5326 25.6456 80.515 25.4445C80.4973 25.2399 80.4885 25.0423 80.4885 24.8518V23.3382H81.076V26.7993H80.4039L79.3666 24.8941C79.3031 24.7777 79.2396 24.6524 79.1761 24.5184C79.1161 24.3843 79.0596 24.2485 79.0067 24.1109H78.9855C79.0067 24.2908 79.0261 24.4831 79.0438 24.6877C79.0614 24.8888 79.0702 25.0882 79.0702 25.2857V26.7993H78.4828ZM84.0831 26.8628C83.8432 26.8628 83.6157 26.8187 83.4004 26.7305C83.1888 26.6423 83 26.5171 82.8342 26.3548L83.1676 25.9526C83.2911 26.0725 83.434 26.166 83.5963 26.233C83.7621 26.2966 83.9279 26.3283 84.0937 26.3283C84.2913 26.3283 84.4413 26.2877 84.5436 26.2066C84.6459 26.1254 84.697 26.0178 84.697 25.8838C84.697 25.7885 84.6741 25.7126 84.6282 25.6562C84.5824 25.5962 84.5189 25.5451 84.4377 25.5027C84.3601 25.4604 84.2684 25.418 84.1625 25.3757L83.6862 25.1693C83.5733 25.1199 83.4622 25.0564 83.3528 24.9788C83.247 24.8976 83.1588 24.7989 83.0882 24.6824C83.0212 24.5625 82.9877 24.4178 82.9877 24.2485C82.9877 24.065 83.037 23.9009 83.1358 23.7563C83.2382 23.6081 83.3758 23.4917 83.5486 23.407C83.725 23.3188 83.9261 23.2747 84.1519 23.2747C84.3601 23.2747 84.5559 23.3135 84.7394 23.3911C84.9264 23.4652 85.0851 23.5675 85.2157 23.6981L84.8929 24.1003C84.78 24.0086 84.6618 23.938 84.5383 23.8886C84.4148 23.8357 84.286 23.8092 84.1519 23.8092C83.9896 23.8092 83.8573 23.8463 83.755 23.9203C83.6562 23.9909 83.6068 24.0897 83.6068 24.2167C83.6068 24.3049 83.6315 24.379 83.6809 24.439C83.7339 24.4954 83.8027 24.5448 83.8873 24.5872C83.9755 24.626 84.0655 24.6648 84.1572 24.7036L84.6282 24.8994C84.7658 24.9594 84.8876 25.03 84.9934 25.1111C85.0993 25.1922 85.1804 25.291 85.2368 25.4075C85.2968 25.5239 85.3268 25.6668 85.3268 25.8361C85.3268 26.0231 85.2774 26.1942 85.1786 26.3495C85.0798 26.5047 84.937 26.63 84.75 26.7252C84.5665 26.817 84.3442 26.8628 84.0831 26.8628Z" fill="#E09E07"/>
</g>
<g filter="url(#filter2_d_1299_643)">
<path d="M42.601 48.7188C38.9868 53.4453 37.1817 58.5567 37.1817 64.053C37.1817 70.5867 39.926 75.6615 45.4185 79.2796C48.615 81.435 52.2465 82.5127 56.311 82.5127C60.3794 82.5127 63.9108 81.7121 66.9034 80.1109C72.5325 77.1896 75.6964 72.2898 76.395 65.4079C76.4604 64.921 76.495 64.4341 76.495 63.9453C76.495 61.3742 75.781 58.5952 74.355 55.6084C72.9328 52.6178 70.6234 49.8696 67.4269 47.3639L48.6516 32.5531C44.5505 29.3565 42.501 25.2208 42.501 20.144C42.501 15.0692 44.1329 10.7756 47.3968 7.26539C50.6646 3.75513 55.0813 2 60.645 2C63.4259 2 66.4512 2.34641 69.7209 3.03922H73.8931L74.101 15.8717H73.0541C72.9867 12.5308 71.7877 9.90578 69.4591 7.99669C67.1286 6.08375 64.2091 5.12536 60.6989 5.12536C57.1886 5.12536 54.2499 6.2916 51.8847 8.62022C49.5176 10.9508 48.336 13.9395 48.336 17.5883C48.336 21.2371 49.864 24.2817 52.924 26.7181L72.2227 41.9446C79.8687 47.9913 83.6926 55.2909 83.6926 63.8452C83.6926 70.2403 81.1542 75.7308 76.0793 80.3188C71.7011 84.2851 65.8603 86.2693 58.5588 86.2693C54.1094 86.2693 50.1469 85.4321 46.6732 83.7598C40.1338 80.6998 36.206 75.4883 34.8877 68.1176C34.676 67.0052 34.5721 65.5984 34.5721 63.8991C34.5721 62.1959 35.0571 59.8654 36.027 56.9094C37.0008 53.9534 38.8791 50.98 41.6619 47.9875L42.601 48.7188Z" fill="#E09E07"/>
</g>
<g filter="url(#filter3_d_1299_643)">
<path d="M96.7137 115.53C94.8615 116.721 92.0964 117 89.8389 117C87.5796 117 85.582 116.862 83.8422 116.585C82.1025 116.307 80.2415 115.769 78.2612 114.968C76.279 114.167 74.42 113.246 72.6802 112.204C70.9444 111.161 69.2085 109.876 67.4687 108.348C64.2702 105.771 61.3681 102.986 58.7624 99.9955C56.1547 97.0087 51.1299 91.3969 43.6898 83.1601C36.2536 74.9195 31.3154 69.4424 28.879 66.7327C26.4464 64.023 24.5701 62.5989 23.2518 62.4604V61.4134C27.2855 61.4134 29.9798 61.3268 31.3346 61.1517C32.6895 60.9785 34.1309 60.6648 35.6609 60.2126C37.1889 59.7622 38.4745 59.1541 39.5175 58.3882C43.6225 55.7458 45.6759 51.3657 45.6759 45.2478C45.6759 40.1729 44.5443 36.1065 42.2811 33.0465C40.0218 29.9885 36.8425 28.4239 32.7434 28.3508H19.8108V90.5116C19.8108 92.2514 20.4517 93.7833 21.7353 95.1073C23.0228 96.4275 24.6066 97.0857 26.4849 97.0857H27.732L27.8398 98.1249H5V97.0857H6.35484C8.09457 97.0857 9.62261 96.4602 10.9428 95.2074C12.2669 93.9565 12.9616 92.4265 13.0289 90.6194V32.7309C12.9616 30.9258 12.2842 29.3804 10.9967 28.0968C9.70729 26.8093 8.16 26.1646 6.35484 26.1646H5V25.1177H33.159C39.2751 25.1177 44.194 26.8401 47.916 30.283C51.636 33.7278 53.497 38.2811 53.497 43.9468C53.497 49.6125 51.7919 54.4814 48.3856 58.5498C44.9773 62.6143 40.805 64.6466 35.8687 64.6466C35.8687 64.6466 35.8341 64.6466 35.7686 64.6466C38.1281 67.1523 40.805 70.0717 43.7976 73.4068C55.8256 86.6896 63.5428 95.0303 66.9453 98.4328C70.3516 101.839 73.3596 104.639 75.9673 106.831C78.573 109.021 80.8862 110.638 82.9031 111.681C87.008 113.908 92.9657 115.307 95.1043 115.022C97.243 114.737 98.1691 112.752 98.1691 112.09V113.546L97.9045 114.604L97.3753 115.133L96.7137 115.53Z" fill="#003B73"/>
</g>
<defs>
<filter id="filter0_d_1299_643" x="39.4727" y="66.4188" width="32.1158" height="12.7879" filterUnits="userSpaceOnUse" color-interpolation-filters="sRGB">
<feFlood flood-opacity="0" result="BackgroundImageFix"/>
<feColorMatrix in="SourceAlpha" type="matrix" values="0 0 0 0 0 0 0 0 0 0 0 0 0 0 0 0 0 0 127 0" result="hardAlpha"/>
<feOffset dy="2.76"/>
<feGaussianBlur stdDeviation="2.3"/>
<feComposite in2="hardAlpha" operator="out"/>
<feColorMatrix type="matrix" values="0 0 0 0 0.116725 0 0 0 0 0.37469 0 0 0 0 0.931352 0 0 0 0.15 0"/>
<feBlend mode="normal" in2="BackgroundImageFix" result="effect1_dropShadow_1299_643"/>
<feBlend mode="normal" in="SourceGraphic" in2="effect1_dropShadow_1299_643" result="shape"/>
</filter>
<filter id="filter1_d_1299_643" x="49.5713" y="21.4349" width="40.3555" height="12.7879" filterUnits="userSpaceOnUse" color-interpolation-filters="sRGB">
<feFlood flood-opacity="0" result="BackgroundImageFix"/>
<feColorMatrix in="SourceAlpha" type="matrix" values="0 0 0 0 0 0 0 0 0 0 0 0 0 0 0 0 0 0 127 0" result="hardAlpha"/>
<feOffset dy="2.76"/>
<feGaussianBlur stdDeviation="2.3"/>
<feComposite in2="hardAlpha" operator="out"/>
<feColorMatrix type="matrix" values="0 0 0 0 0.116725 0 0 0 0 0.37469 0 0 0 0 0.931352 0 0 0 0.15 0"/>
<feBlend mode="normal" in2="BackgroundImageFix" result="effect1_dropShadow_1299_643"/>
<feBlend mode="normal" in="SourceGraphic" in2="effect1_dropShadow_1299_643" result="shape"/>
</filter>
<filter id="filter2_d_1299_643" x="29.9721" y="0.16" width="58.3205" height="93.4695" filterUnits="userSpaceOnUse" color-interpolation-filters="sRGB">
<feFlood flood-opacity="0" result="BackgroundImageFix"/>
<feColorMatrix in="SourceAlpha" type="matrix" values="0 0 0 0 0 0 0 0 0 0 0 0 0 0 0 0 0 0 127 0" result="hardAlpha"/>
<feOffset dy="2.76"/>
<feGaussianBlur stdDeviation="2.3"/>
<feComposite in2="hardAlpha" operator="out"/>
<feColorMatrix type="matrix" values="0 0 0 0 0.116725 0 0 0 0 0.37469 0 0 0 0 0.931352 0 0 0 0.15 0"/>
<feBlend mode="normal" in2="BackgroundImageFix" result="effect1_dropShadow_1299_643"/>
<feBlend mode="normal" in="SourceGraphic" in2="effect1_dropShadow_1299_643" result="shape"/>
</filter>
<filter id="filter3_d_1299_643" x="0.4" y="23.2777" width="102.369" height="101.082" filterUnits="userSpaceOnUse" color-interpolation-filters="sRGB">
<feFlood flood-opacity="0" result="BackgroundImageFix"/>
<feColorMatrix in="SourceAlpha" type="matrix" values="0 0 0 0 0 0 0 0 0 0 0 0 0 0 0 0 0 0 127 0" result="hardAlpha"/>
<feOffset dy="2.76"/>
<feGaussianBlur stdDeviation="2.3"/>
<feComposite in2="hardAlpha" operator="out"/>
<feColorMatrix type="matrix" values="0 0 0 0 0.116725 0 0 0 0 0.37469 0 0 0 0 0.931352 0 0 0 0.15 0"/>
<feBlend mode="normal" in2="BackgroundImageFix" result="effect1_dropShadow_1299_643"/>
<feBlend mode="normal" in="SourceGraphic" in2="effect1_dropShadow_1299_643" result="shape"/>
</filter>
</defs>
</svg>
