<svg width="28" height="29" viewBox="0 0 28 29" fill="none" xmlns="http://www.w3.org/2000/svg">
<path d="M18.5833 24.8125V22.5208C18.5833 21.3053 18.1004 20.1395 17.2409 19.2799C16.3813 18.4204 15.2155 17.9375 14 17.9375H7.12496C5.90938 17.9375 4.74359 18.4204 3.88405 19.2799C3.02451 20.1395 2.54163 21.3053 2.54163 22.5208V24.8125M22.0208 9.91667V16.7917M25.4583 13.3542H18.5833M15.1458 8.77083C15.1458 11.3021 13.0938 13.3542 10.5625 13.3542C8.03115 13.3542 5.97913 11.3021 5.97913 8.77083C5.97913 6.23953 8.03115 4.1875 10.5625 4.1875C13.0938 4.1875 15.1458 6.23953 15.1458 8.77083Z" stroke="#C6E1FA" stroke-width="2" stroke-linecap="round" stroke-linejoin="round"/>
</svg>
