<svg width="28" height="29" viewBox="0 0 28 29" fill="none" xmlns="http://www.w3.org/2000/svg">
<path d="M18.5834 23.6665V5.33317C18.5834 4.72538 18.342 4.14249 17.9122 3.71272C17.4824 3.28295 16.8995 3.0415 16.2917 3.0415H11.7084C11.1006 3.0415 10.5177 3.28295 10.088 3.71272C9.65819 4.14249 9.41675 4.72538 9.41675 5.33317V23.6665M4.83341 7.62484H23.1667C24.4324 7.62484 25.4584 8.65085 25.4584 9.9165V21.3748C25.4584 22.6405 24.4324 23.6665 23.1667 23.6665H4.83341C3.56776 23.6665 2.54175 22.6405 2.54175 21.3748V9.9165C2.54175 8.65085 3.56776 7.62484 4.83341 7.62484Z" stroke="#125BA1" stroke-width="1.75" stroke-linecap="round" stroke-linejoin="round"/>
</svg>
