<svg width="530" height="654" viewBox="0 0 530 654" fill="none" xmlns="http://www.w3.org/2000/svg">
<g clip-path="url(#clip0_2047_5523)">
<path d="M228.474 393.835C226.771 393.835 225.269 393.424 223.967 392.603C222.666 391.762 221.644 390.581 220.903 389.059C220.183 387.517 219.822 385.684 219.822 383.561C219.822 381.438 220.183 379.626 220.903 378.125C221.644 376.623 222.666 375.471 223.967 374.67C225.269 373.869 226.771 373.469 228.474 373.469C230.196 373.469 231.707 373.869 233.009 374.67C234.311 375.471 235.322 376.623 236.043 378.125C236.784 379.626 237.154 381.438 237.154 383.561C237.154 385.684 236.784 387.517 236.043 389.059C235.322 390.581 234.311 391.762 233.009 392.603C231.707 393.424 230.196 393.835 228.474 393.835ZM228.474 390.801C229.514 390.801 230.406 390.511 231.146 389.929C231.908 389.329 232.498 388.488 232.919 387.407C233.34 386.305 233.549 385.024 233.549 383.561C233.549 382.099 233.34 380.848 232.919 379.806C232.498 378.745 231.908 377.934 231.146 377.374C230.406 376.793 229.514 376.502 228.474 376.502C227.452 376.502 226.56 376.793 225.8 377.374C225.038 377.934 224.448 378.745 224.027 379.806C223.607 380.848 223.397 382.099 223.397 383.561C223.397 385.024 223.607 386.305 224.027 387.407C224.448 388.488 225.038 389.329 225.8 389.929C226.56 390.511 227.452 390.801 228.474 390.801ZM250.397 393.475V373.828H254.572L257.936 383.442C258.156 384.062 258.357 384.683 258.537 385.304C258.718 385.905 258.898 386.566 259.077 387.286H259.198C259.378 386.566 259.548 385.905 259.709 385.304C259.889 384.683 260.079 384.062 260.279 383.442L263.643 373.828H267.789V393.475H264.575V384.522C264.575 383.902 264.595 383.191 264.635 382.39C264.695 381.588 264.765 380.797 264.845 380.017C264.925 379.216 265.006 378.515 265.086 377.914H264.965L263.403 382.901L260.22 391.672H257.876L254.692 382.901L253.19 377.914H253.07C253.15 378.515 253.22 379.216 253.28 380.017C253.361 380.797 253.421 381.588 253.46 382.39C253.52 383.191 253.551 383.902 253.551 384.522V393.475H250.397ZM282.091 393.475V373.828H293.927V376.773H285.576V381.789H292.635V384.733H285.576V390.53H294.227V393.475H282.091ZM315.798 393.835C314.035 393.835 312.454 393.444 311.051 392.663C309.65 391.883 308.548 390.741 307.747 389.239C306.946 387.717 306.546 385.874 306.546 383.711C306.546 382.11 306.776 380.678 307.236 379.416C307.717 378.154 308.379 377.083 309.219 376.202C310.08 375.301 311.071 374.619 312.192 374.159C313.315 373.698 314.526 373.469 315.828 373.469C317.229 373.469 318.421 373.718 319.403 374.22C320.383 374.72 321.174 375.301 321.775 375.962L319.914 378.094C319.432 377.614 318.881 377.233 318.26 376.953C317.641 376.652 316.87 376.502 315.948 376.502C314.786 376.502 313.765 376.793 312.884 377.374C312.003 377.934 311.322 378.745 310.841 379.806C310.361 380.868 310.121 382.14 310.121 383.621C310.121 385.103 310.351 386.385 310.811 387.467C311.271 388.548 311.943 389.379 312.824 389.96C313.725 390.521 314.826 390.801 316.128 390.801C316.689 390.801 317.22 390.731 317.72 390.59C318.221 390.431 318.632 390.211 318.952 389.929V385.694H315.227V382.841H322.075V391.491C321.415 392.152 320.534 392.713 319.432 393.174C318.351 393.614 317.139 393.835 315.798 393.835ZM333.012 393.475L339.411 373.828H343.495L349.894 393.475H346.229L343.226 383.021C342.905 381.98 342.594 380.908 342.294 379.806C342.014 378.705 341.733 377.614 341.453 376.533H341.333C341.072 377.634 340.792 378.735 340.492 379.837C340.211 380.918 339.911 381.98 339.59 383.021L336.557 393.475H333.012ZM336.797 388.158V385.424H346.05V388.158H336.797Z" fill="#072542"/>
<path d="M286.887 138.502C285.185 138.502 283.683 138.092 282.381 137.27C281.08 136.429 280.059 135.248 279.317 133.726C278.597 132.184 278.236 130.352 278.236 128.229C278.236 126.106 278.597 124.293 279.317 122.792C280.059 121.29 281.08 120.138 282.381 119.337C283.683 118.536 285.185 118.136 286.887 118.136C288.61 118.136 290.121 118.536 291.423 119.337C292.725 120.138 293.737 121.29 294.458 122.792C295.198 124.293 295.568 126.106 295.568 128.229C295.568 130.352 295.198 132.184 294.458 133.726C293.737 135.248 292.725 136.429 291.423 137.27C290.121 138.092 288.61 138.502 286.887 138.502ZM286.887 135.468C287.929 135.468 288.82 135.178 289.561 134.597C290.322 133.997 290.913 133.155 291.333 132.074C291.753 130.973 291.964 129.691 291.964 128.229C291.964 126.766 291.753 125.515 291.333 124.473C290.913 123.412 290.322 122.601 289.561 122.041C288.82 121.46 287.929 121.169 286.887 121.169C285.866 121.169 284.975 121.46 284.214 122.041C283.453 122.601 282.863 123.412 282.442 124.473C282.022 125.515 281.811 126.766 281.811 128.229C281.811 129.691 282.022 130.973 282.442 132.074C282.863 133.155 283.453 133.997 284.214 134.597C284.975 135.178 285.866 135.468 286.887 135.468ZM305.807 138.142V118.496H309.292V135.198H317.462V138.142H305.807ZM333.556 138.502C332.414 138.502 331.383 138.341 330.462 138.021C329.561 137.701 328.779 137.191 328.118 136.489C327.477 135.788 326.977 134.878 326.616 133.755C326.276 132.634 326.105 131.283 326.105 129.7V118.496H329.59V129.971C329.59 131.352 329.75 132.444 330.071 133.246C330.411 134.046 330.882 134.617 331.483 134.957C332.083 135.297 332.774 135.468 333.556 135.468C334.356 135.468 335.058 135.297 335.658 134.957C336.279 134.617 336.759 134.046 337.1 133.246C337.461 132.444 337.64 131.352 337.64 129.971V118.496H340.975V129.7C340.975 131.283 340.805 132.634 340.464 133.755C340.124 134.878 339.624 135.788 338.962 136.489C338.322 137.191 337.541 137.701 336.62 138.021C335.719 138.341 334.697 138.502 333.556 138.502ZM356.153 138.142V121.44H350.476V118.496H365.315V121.44H359.638V138.142H356.153ZM374.895 138.142V118.496H378.379V138.142H374.895ZM397.31 138.502C395.608 138.502 394.106 138.092 392.804 137.27C391.503 136.429 390.482 135.248 389.74 133.726C389.02 132.184 388.659 130.352 388.659 128.229C388.659 126.106 389.02 124.293 389.74 122.792C390.482 121.29 391.503 120.138 392.804 119.337C394.106 118.536 395.608 118.136 397.31 118.136C399.033 118.136 400.544 118.536 401.846 119.337C403.148 120.138 404.159 121.29 404.881 122.792C405.621 124.293 405.991 126.106 405.991 128.229C405.991 130.352 405.621 132.184 404.881 133.726C404.159 135.248 403.148 136.429 401.846 137.27C400.544 138.092 399.033 138.502 397.31 138.502ZM397.31 135.468C398.352 135.468 399.243 135.178 399.984 134.597C400.745 133.997 401.335 133.155 401.756 132.074C402.176 130.973 402.387 129.691 402.387 128.229C402.387 126.766 402.176 125.515 401.756 124.473C401.335 123.412 400.745 122.601 399.984 122.041C399.243 121.46 398.352 121.169 397.31 121.169C396.289 121.169 395.398 121.46 394.637 122.041C393.876 122.601 393.286 123.412 392.865 124.473C392.444 125.515 392.234 126.766 392.234 128.229C392.234 129.691 392.444 130.973 392.865 132.074C393.286 133.155 393.876 133.997 394.637 134.597C395.398 135.178 396.289 135.468 397.31 135.468ZM416.23 138.142V118.496H420.045L425.933 129.31C426.293 129.971 426.634 130.682 426.954 131.443C427.294 132.204 427.614 132.975 427.915 133.755H428.035C427.955 132.695 427.865 131.594 427.765 130.451C427.665 129.29 427.614 128.169 427.614 127.087V118.496H430.949V138.142H427.134L421.246 127.328C420.887 126.667 420.526 125.956 420.165 125.195C419.825 124.434 419.504 123.663 419.204 122.882H419.083C419.204 123.903 419.314 124.995 419.414 126.156C419.515 127.297 419.564 128.429 419.564 129.55V138.142H416.23ZM448.018 138.502C446.657 138.502 445.364 138.252 444.143 137.751C442.941 137.25 441.87 136.539 440.929 135.618L442.822 133.336C443.522 134.017 444.333 134.547 445.254 134.927C446.195 135.288 447.137 135.468 448.078 135.468C449.199 135.468 450.051 135.238 450.631 134.777C451.212 134.317 451.503 133.706 451.503 132.945C451.503 132.404 451.373 131.973 451.112 131.653C450.851 131.312 450.492 131.022 450.031 130.782C449.591 130.541 449.069 130.301 448.468 130.061L445.765 128.889C445.124 128.609 444.494 128.249 443.873 127.808C443.272 127.348 442.771 126.786 442.371 126.126C441.99 125.445 441.8 124.623 441.8 123.663C441.8 122.621 442.08 121.691 442.641 120.869C443.221 120.028 444.003 119.367 444.984 118.887C445.985 118.385 447.127 118.136 448.408 118.136C449.591 118.136 450.701 118.356 451.743 118.797C452.804 119.217 453.705 119.797 454.446 120.539L452.615 122.821C451.974 122.301 451.302 121.9 450.602 121.62C449.901 121.319 449.17 121.169 448.408 121.169C447.487 121.169 446.736 121.38 446.155 121.801C445.595 122.2 445.314 122.762 445.314 123.482C445.314 123.984 445.455 124.403 445.735 124.744C446.036 125.065 446.426 125.345 446.906 125.585C447.408 125.806 447.918 126.026 448.439 126.246L451.112 127.358C451.893 127.698 452.584 128.099 453.185 128.559C453.785 129.02 454.247 129.581 454.567 130.241C454.908 130.902 455.077 131.713 455.077 132.674C455.077 133.735 454.796 134.707 454.236 135.588C453.675 136.469 452.864 137.18 451.803 137.721C450.761 138.242 449.5 138.502 448.018 138.502Z" fill="#E09E07"/>
<path d="M213.478 265.943C192.964 292.771 182.718 321.784 182.718 352.981C182.718 390.067 198.295 418.872 229.47 439.409C247.614 451.643 268.227 457.76 291.297 457.76C314.39 457.76 334.434 453.216 351.421 444.127C383.372 427.546 401.33 399.734 405.295 360.671C405.667 357.908 405.863 355.144 405.863 352.37C405.863 337.776 401.811 322.002 393.717 305.05C385.645 288.074 372.536 272.475 354.392 258.253L247.822 174.185C224.544 156.042 212.91 132.567 212.91 103.75C212.91 74.9449 222.173 50.5745 240.7 30.65C259.248 10.7255 284.318 0.763184 315.898 0.763184C331.682 0.763184 348.854 2.72942 367.413 6.66189H391.095L392.275 79.5H386.332C385.95 60.5367 379.144 45.6371 365.928 34.8009C352.699 23.943 336.128 18.503 316.203 18.503C296.279 18.503 279.598 25.1227 266.173 38.3401C252.738 51.5685 246.031 68.5328 246.031 89.2438C246.031 109.955 254.704 127.236 272.072 141.065L381.614 227.492C425.012 261.814 446.718 303.246 446.718 351.802C446.718 388.101 432.309 419.265 403.505 445.307C378.653 467.821 345.5 479.083 304.056 479.083C278.801 479.083 256.309 474.331 236.592 464.838C199.474 447.47 177.18 417.889 169.697 376.052C168.495 369.738 167.905 361.753 167.905 352.107C167.905 342.44 170.658 329.212 176.163 312.433C181.691 295.655 192.352 278.778 208.147 261.792L213.478 265.943Z" fill="#E09E07"/>
<path d="M520.627 645.172C510.113 651.931 494.418 653.515 481.605 653.515C468.781 653.515 457.442 652.728 447.567 651.156C437.692 649.583 427.129 646.524 415.889 641.98C404.638 637.435 394.085 632.203 384.211 626.294C374.358 620.373 364.504 613.076 354.63 604.403C336.475 589.776 320.003 573.97 305.212 556.994C290.41 540.041 261.889 508.188 219.659 461.436C177.45 414.661 149.421 383.573 135.592 368.192C121.784 352.812 111.134 344.729 103.651 343.942V338C126.547 338 141.839 337.508 149.53 336.514C157.22 335.53 165.402 333.75 174.086 331.183C182.76 328.627 190.056 325.176 195.977 320.828C219.277 305.83 230.932 280.968 230.932 246.242C230.932 217.436 224.509 194.356 211.663 176.986C198.838 159.629 180.793 150.749 157.526 150.333H84.12V503.163C84.12 513.038 87.7576 521.734 95.0435 529.248C102.351 536.742 111.342 540.479 122.003 540.479H129.081L129.693 546.377H0.0526123V540.479H7.74277C17.6177 540.479 26.2909 536.928 33.7845 529.817C41.2998 522.716 45.2432 514.033 45.6255 503.775V175.195C45.2432 164.949 41.3981 156.178 34.0903 148.892C26.7716 141.583 17.989 137.924 7.74277 137.924H0.0526123V131.981H159.885C194.6 131.981 222.521 141.759 243.648 161.3C264.762 180.853 275.325 206.699 275.325 238.857C275.325 271.017 265.647 298.653 246.313 321.746C226.967 344.816 203.285 356.351 175.266 356.351C175.266 356.351 175.069 356.351 174.698 356.351C188.09 370.573 203.285 387.145 220.271 406.075C288.542 481.469 332.346 528.811 351.659 548.125C370.993 567.46 388.067 583.354 402.868 595.795C417.659 608.226 430.788 617.402 442.237 623.322C465.536 635.961 499.352 643.905 511.492 642.286C523.631 640.666 528.887 629.401 528.887 625.647V633.907L527.386 639.915L524.382 642.919L520.627 645.172Z" fill="#003B73"/>
</g>
<defs>
<clipPath id="clip0_2047_5523">
<rect width="529.893" height="653.641" fill="white"/>
</clipPath>
</defs>
</svg>
