<svg width="24" height="24" viewBox="0 0 24 24" fill="none" xmlns="http://www.w3.org/2000/svg">
<g clip-path="url(#clip0_2022_3528)">
<path d="M11.9998 21.6C14.5458 21.6 16.9876 20.5886 18.788 18.7882C20.5883 16.9879 21.5998 14.5461 21.5998 12C21.5998 9.45392 20.5883 7.01212 18.788 5.21178C16.9876 3.41143 14.5458 2.4 11.9998 2.4M11.9998 21.6C9.45368 21.6 7.01188 20.5886 5.21153 18.7882C3.41118 16.9879 2.39976 14.5461 2.39976 12M11.9998 21.6V24M11.9998 2.4C9.45368 2.4 7.01188 3.41143 5.21153 5.21178C3.41118 7.01212 2.39976 9.45392 2.39976 12M11.9998 2.4V0M2.39976 12H-0.000244141M14.3998 12C14.3998 12.6365 14.1469 13.247 13.6968 13.6971C13.2467 14.1471 12.6363 14.4 11.9998 14.4C11.3632 14.4 10.7528 14.1471 10.3027 13.6971C9.85261 13.247 9.59976 12.6365 9.59976 12C9.59976 11.3635 9.85261 10.753 10.3027 10.3029C10.7528 9.85286 11.3632 9.6 11.9998 9.6C12.6363 9.6 13.2467 9.85286 13.6968 10.3029C14.1469 10.753 14.3998 11.3635 14.3998 12ZM14.3998 12H23.9998M17.9998 22.392L16.7998 20.316M10.7998 9.924L5.99976 1.608M22.3918 18L20.3158 16.8M1.60776 6L3.68376 7.2M22.3918 6L20.3158 7.2M1.60776 18L3.68376 16.8M17.9998 1.608L16.7998 3.684M10.7998 14.076L5.99976 22.392" stroke="#003B73" stroke-width="2" stroke-linecap="round" stroke-linejoin="round"/>
</g>
<defs>
<clipPath id="clip0_2022_3528">
<rect width="24" height="24" fill="white"/>
</clipPath>
</defs>
</svg>
