<svg width="24" height="24" viewBox="0 0 24 24" fill="none" xmlns="http://www.w3.org/2000/svg">
<path d="M11.0801 16.8804L13.0801 18.8804C13.2771 19.0774 13.5109 19.2336 13.7683 19.3402C14.0257 19.4468 14.3015 19.5017 14.5801 19.5017C14.8587 19.5017 15.1345 19.4468 15.3919 19.3402C15.6492 19.2336 15.8831 19.0774 16.0801 18.8804C16.2771 18.6834 16.4333 18.4496 16.5399 18.1922C16.6465 17.9348 16.7014 17.659 16.7014 17.3804C16.7014 17.1018 16.6465 16.826 16.5399 16.5686C16.4333 16.3112 16.2771 16.0774 16.0801 15.8804M14.0801 13.8804L16.5801 16.3804C16.9779 16.7782 17.5175 17.0017 18.0801 17.0017C18.6427 17.0017 19.1823 16.7782 19.5801 16.3804C19.9779 15.9826 20.2014 15.443 20.2014 14.8804C20.2014 14.3178 19.9779 13.7782 19.5801 13.3804L15.7001 9.50039C15.1376 8.93858 14.3751 8.62303 13.5801 8.62303C12.7851 8.62303 12.0226 8.93858 11.4601 9.50039L10.5801 10.3804C10.1823 10.7782 9.64269 11.0017 9.08008 11.0017C8.51747 11.0017 7.9779 10.7782 7.58008 10.3804C7.18225 9.98256 6.95876 9.443 6.95876 8.88039C6.95876 8.31778 7.18225 7.77821 7.58008 7.38039L10.3901 4.57039C11.3023 3.66053 12.492 3.08094 13.7707 2.92336C15.0495 2.76578 16.3442 3.03922 17.4501 3.70039L17.9201 3.98039C18.3459 4.23737 18.8521 4.3265 19.3401 4.23039L21.0801 3.88039M21.0801 2.88039L22.0801 13.8804H20.0801M3.08008 2.88039L2.08008 13.8804L8.58008 20.3804C8.9779 20.7782 9.51747 21.0017 10.0801 21.0017C10.6427 21.0017 11.1823 20.7782 11.5801 20.3804C11.9779 19.9826 12.2014 19.443 12.2014 18.8804C12.2014 18.3178 11.9779 17.7782 11.5801 17.3804M3.08008 3.88039H11.0801" stroke="#003B73" stroke-width="2" stroke-linecap="round" stroke-linejoin="round"/>
</svg>
