<svg width="150" height="126" viewBox="0 0 150 126" fill="none" xmlns="http://www.w3.org/2000/svg">
<g opacity="0.15">
<path d="M88.7429 18.5071C87.5977 19.6754 86.9563 21.2462 86.9563 22.8821C86.9563 24.5181 87.5977 26.0888 88.7429 27.2571L98.7429 37.2571C99.9112 38.4023 101.482 39.0437 103.118 39.0437C104.754 39.0437 106.325 38.4023 107.493 37.2571L131.055 13.6946C134.198 20.6396 135.15 28.3774 133.783 35.8768C132.417 43.3762 128.797 50.2812 123.407 55.6714C118.017 61.0616 111.112 64.6811 103.613 66.0475C96.1131 67.4139 88.3753 66.4624 81.4304 63.3196L38.2429 106.507C35.7565 108.994 32.3842 110.39 28.8679 110.39C25.3516 110.39 21.9793 108.994 19.4929 106.507C17.0065 104.021 15.6096 100.648 15.6096 97.1321C15.6096 93.6158 17.0065 90.2435 19.4929 87.7571L62.6804 44.5696C59.5377 37.6247 58.5861 29.8869 59.9525 22.3875C61.3189 14.888 64.9384 7.98311 70.3286 2.5929C75.7188 -2.79732 82.6238 -6.41681 90.1232 -7.78322C97.6227 -9.14964 105.36 -8.19808 112.305 -5.05536L88.7429 18.5071Z" stroke="#0076E5" stroke-width="6" stroke-linecap="round" stroke-linejoin="round"/>
</g>
</svg>
