<svg width="24" height="24" viewBox="0 0 24 24" fill="none" xmlns="http://www.w3.org/2000/svg">
<path d="M21.9187 10.0404V16.0404M5.91874 12.5404V16.0404C5.91874 16.836 6.55088 17.5991 7.6761 18.1617C8.80132 18.7243 10.3274 19.0404 11.9187 19.0404C13.51 19.0404 15.0362 18.7243 16.1614 18.1617C17.2866 17.5991 17.9187 16.836 17.9187 16.0404V12.5404M21.3387 10.9624C21.5178 10.8834 21.6697 10.7537 21.7757 10.5892C21.8817 10.4247 21.9371 10.2328 21.9351 10.0371C21.933 9.84148 21.8737 9.65072 21.7643 9.48848C21.6549 9.32624 21.5004 9.19965 21.3197 9.1244L12.7487 5.2204C12.4882 5.10154 12.2051 5.04004 11.9187 5.04004C11.6324 5.04004 11.3493 5.10154 11.0887 5.2204L2.51874 9.1204C2.34071 9.19837 2.18926 9.32653 2.08291 9.48921C1.97656 9.65189 1.91992 9.84204 1.91992 10.0364C1.91992 10.2308 1.97656 10.4209 2.08291 10.5836C2.18926 10.7463 2.34071 10.8744 2.51874 10.9524L11.0887 14.8604C11.3493 14.9792 11.6324 15.0408 11.9187 15.0408C12.2051 15.0408 12.4882 14.9792 12.7487 14.8604L21.3387 10.9624Z" stroke="#003B73" stroke-width="2" stroke-linecap="round" stroke-linejoin="round"/>
</svg>
