<svg width="50" height="50" viewBox="0 0 50 50" fill="none" xmlns="http://www.w3.org/2000/svg">
<g clip-path="url(#clip0_2001_3497)">
<path d="M24.9998 45C30.3041 45 35.3912 42.8929 39.1419 39.1421C42.8926 35.3914 44.9998 30.3043 44.9998 25C44.9998 19.6957 42.8926 14.6086 39.1419 10.8579C35.3912 7.10714 30.3041 5 24.9998 5M24.9998 45C19.6954 45 14.6083 42.8929 10.8576 39.1421C7.10689 35.3914 4.99976 30.3043 4.99976 25M24.9998 45V50M24.9998 5C19.6954 5 14.6083 7.10714 10.8576 10.8579C7.10689 14.6086 4.99976 19.6957 4.99976 25M24.9998 5V0M4.99976 25H-0.000244141M29.9998 25C29.9998 26.3261 29.473 27.5978 28.5353 28.5355C27.5976 29.4732 26.3258 30 24.9998 30C23.6737 30 22.4019 29.4732 21.4642 28.5355C20.5265 27.5978 19.9998 26.3261 19.9998 25C19.9998 23.6739 20.5265 22.4021 21.4642 21.4645C22.4019 20.5268 23.6737 20 24.9998 20C26.3258 20 27.5976 20.5268 28.5353 21.4645C29.473 22.4021 29.9998 23.6739 29.9998 25ZM29.9998 25H49.9998M37.4998 46.65L34.9998 42.325M22.4998 20.675L12.4998 3.35M46.6498 37.5L42.3248 35M3.34976 12.5L7.67476 15M46.6498 12.5L42.3248 15M3.34976 37.5L7.67476 35M37.4998 3.35L34.9998 7.675M22.4998 29.325L12.4998 46.65" stroke="#003B73" stroke-width="2" stroke-linecap="round" stroke-linejoin="round"/>
</g>
<defs>
<clipPath id="clip0_2001_3497">
<rect width="50" height="50" fill="white"/>
</clipPath>
</defs>
</svg>
