<svg width="50" height="50" viewBox="0 0 50 50" fill="none" xmlns="http://www.w3.org/2000/svg">
<path d="M29.1666 4.16602V12.4993C29.1666 13.6044 29.6056 14.6642 30.387 15.4456C31.1684 16.227 32.2282 16.666 33.3333 16.666H41.6666M31.2499 37.4993C31.2499 35.8417 30.5914 34.252 29.4193 33.0799C28.2472 31.9078 26.6575 31.2493 24.9999 31.2493M24.9999 31.2493C23.3423 31.2493 21.7526 31.9078 20.5805 33.0799C19.4084 34.252 18.7499 35.8417 18.7499 37.4993M24.9999 31.2493C27.3011 31.2493 29.1666 29.3839 29.1666 27.0827C29.1666 24.7815 27.3011 22.916 24.9999 22.916C22.6987 22.916 20.8333 24.7815 20.8333 27.0827C20.8333 29.3839 22.6987 31.2493 24.9999 31.2493ZM31.2499 4.16602H12.4999C11.3948 4.16602 10.335 4.605 9.55364 5.3864C8.77224 6.16781 8.33325 7.22761 8.33325 8.33268V41.666C8.33325 42.7711 8.77224 43.8309 9.55364 44.6123C10.335 45.3937 11.3948 45.8327 12.4999 45.8327H37.4999C38.605 45.8327 39.6648 45.3937 40.4462 44.6123C41.2276 43.8309 41.6666 42.7711 41.6666 41.666V14.5827L31.2499 4.16602Z" stroke="#003B73" stroke-width="2" stroke-linecap="round" stroke-linejoin="round"/>
</svg>
