<svg width="50" height="50" viewBox="0 0 50 50" fill="none" xmlns="http://www.w3.org/2000/svg">
<path d="M45.8332 24.9993C45.8332 36.5053 36.5058 45.8327 24.9998 45.8327M45.8332 24.9993C45.8332 13.4934 36.5058 4.16602 24.9998 4.16602M45.8332 24.9993H4.1665M24.9998 45.8327C13.4939 45.8327 4.1665 36.5053 4.1665 24.9993M24.9998 45.8327C19.6503 40.2157 16.6665 32.7561 16.6665 24.9993C16.6665 17.2426 19.6503 9.783 24.9998 4.16602M24.9998 45.8327C30.3494 40.2157 33.3332 32.7561 33.3332 24.9993C33.3332 17.2426 30.3494 9.783 24.9998 4.16602M4.1665 24.9993C4.1665 13.4934 13.4939 4.16602 24.9998 4.16602" stroke="#003B73" stroke-width="2" stroke-linecap="round" stroke-linejoin="round"/>
</svg>
