<svg width="50" height="50" viewBox="0 0 50 50" fill="none" xmlns="http://www.w3.org/2000/svg">
<path d="M21.4583 31.25H14.5833C12.3732 31.25 10.2536 32.128 8.69078 33.6908C7.12797 35.2536 6.25 37.3732 6.25 39.5833V43.75M43.75 43.75L39.7917 39.7917M29.1667 14.5833C29.1667 19.1857 25.4357 22.9167 20.8333 22.9167C16.231 22.9167 12.5 19.1857 12.5 14.5833C12.5 9.98096 16.231 6.25 20.8333 6.25C25.4357 6.25 29.1667 9.98096 29.1667 14.5833ZM41.6667 35.4167C41.6667 38.8684 38.8684 41.6667 35.4167 41.6667C31.9649 41.6667 29.1667 38.8684 29.1667 35.4167C29.1667 31.9649 31.9649 29.1667 35.4167 29.1667C38.8684 29.1667 41.6667 31.9649 41.6667 35.4167Z" stroke="#003B73" stroke-width="2" stroke-linecap="round" stroke-linejoin="round"/>
</svg>
