<svg width="25" height="24" viewBox="0 0 25 24" fill="none" xmlns="http://www.w3.org/2000/svg">
<path d="M11.2771 13.0853C11.086 12.8945 10.8583 12.7444 10.6076 12.6441L2.67757 9.46406C2.58289 9.42606 2.5021 9.36002 2.44603 9.27478C2.38997 9.18955 2.36132 9.0892 2.36393 8.98722C2.36655 8.88523 2.40029 8.78648 2.46065 8.70423C2.521 8.62197 2.60507 8.56015 2.70157 8.52706L21.7016 2.02706C21.7902 1.99505 21.8861 1.98894 21.978 2.00945C22.07 2.02995 22.1542 2.07622 22.2208 2.14283C22.2874 2.20945 22.3337 2.29366 22.3542 2.38561C22.3747 2.47756 22.3686 2.57345 22.3366 2.66206L15.8366 21.6621C15.8035 21.7586 15.7417 21.8426 15.6594 21.903C15.5772 21.9633 15.4784 21.9971 15.3764 21.9997C15.2744 22.0023 15.1741 21.9737 15.0888 21.9176C15.0036 21.8615 14.9376 21.7807 14.8996 21.6861L11.7196 13.7541C11.6188 13.5036 11.4683 13.2761 11.2771 13.0853ZM11.2771 13.0853L22.2176 2.14706" stroke="#FCF6E8" stroke-width="2" stroke-linecap="round" stroke-linejoin="round"/>
</svg>
