<svg width="28" height="29" viewBox="0 0 28 29" fill="none" xmlns="http://www.w3.org/2000/svg">
<path d="M18.5837 23.6665V5.33317C18.5837 4.72538 18.3422 4.14249 17.9124 3.71272C17.4827 3.28295 16.8998 3.0415 16.292 3.0415H11.7087C11.1009 3.0415 10.518 3.28295 10.0882 3.71272C9.65843 4.14249 9.41699 4.72538 9.41699 5.33317V23.6665M4.83366 7.62484H23.167C24.4326 7.62484 25.4587 8.65085 25.4587 9.9165V21.3748C25.4587 22.6405 24.4326 23.6665 23.167 23.6665H4.83366C3.56801 23.6665 2.54199 22.6405 2.54199 21.3748V9.9165C2.54199 8.65085 3.56801 7.62484 4.83366 7.62484Z" stroke="#C6E1FA" stroke-width="1.75" stroke-linecap="round" stroke-linejoin="round"/>
</svg>
