<svg width="302" height="84" viewBox="0 0 302 84" fill="none" xmlns="http://www.w3.org/2000/svg">
<g clip-path="url(#clip0_134_1108)">
<path d="M31.4522 48.049C31.2627 48.049 31.0955 48.0032 30.9506 47.9119C30.8058 47.8183 30.6921 47.6868 30.6096 47.5174C30.5294 47.3458 30.4893 47.1418 30.4893 46.9055C30.4893 46.6692 30.5294 46.4676 30.6096 46.3004C30.6921 46.1333 30.8058 46.0051 30.9506 45.916C31.0955 45.8267 31.2627 45.7822 31.4522 45.7822C31.6438 45.7822 31.8121 45.8267 31.957 45.916C32.1019 46.0051 32.2144 46.1333 32.2947 46.3004C32.3771 46.4676 32.4183 46.6692 32.4183 46.9055C32.4183 47.1418 32.3771 47.3458 32.2947 47.5174C32.2144 47.6868 32.1019 47.8183 31.957 47.9119C31.8121 48.0032 31.6438 48.049 31.4522 48.049ZM31.4522 47.7113C31.568 47.7113 31.6673 47.679 31.7497 47.6143C31.8344 47.5474 31.9001 47.4538 31.947 47.3335C31.9938 47.2109 32.0171 47.0683 32.0171 46.9055C32.0171 46.7428 31.9938 46.6035 31.947 46.4876C31.9001 46.3695 31.8344 46.2792 31.7497 46.2168C31.6673 46.1522 31.568 46.1198 31.4522 46.1198C31.3385 46.1198 31.2392 46.1522 31.1546 46.2168C31.0698 46.2792 31.0042 46.3695 30.9573 46.4876C30.9106 46.6035 30.8871 46.7428 30.8871 46.9055C30.8871 47.0683 30.9106 47.2109 30.9573 47.3335C31.0042 47.4538 31.0698 47.5474 31.1546 47.6143C31.2392 47.679 31.3385 47.7113 31.4522 47.7113ZM33.8923 48.0089V45.8223H34.3569L34.7314 46.8922C34.7558 46.9613 34.7782 47.0304 34.7982 47.0995C34.8183 47.1664 34.8384 47.2399 34.8584 47.3201H34.8718C34.8918 47.2399 34.9108 47.1664 34.9286 47.0995C34.9487 47.0304 34.9698 46.9613 34.9921 46.8922L35.3666 45.8223H35.828V48.0089H35.4703V47.0125C35.4703 46.9434 35.4725 46.8643 35.477 46.7752C35.4836 46.6859 35.4915 46.5979 35.5003 46.511C35.5092 46.4219 35.5182 46.3439 35.5271 46.277H35.5137L35.3398 46.832L34.9855 47.8083H34.7246L34.3703 46.832L34.2032 46.277H34.1897C34.1987 46.3439 34.2064 46.4219 34.2132 46.511C34.2221 46.5979 34.2288 46.6859 34.2332 46.7752C34.2399 46.8643 34.2433 46.9434 34.2433 47.0125V48.0089H33.8923ZM37.4198 48.0089V45.8223H38.7371V46.15H37.8077V46.7083H38.5933V47.0359H37.8077V47.6811H38.7705V48.0089H37.4198ZM41.1714 48.049C40.9751 48.049 40.7991 48.0055 40.643 47.9186C40.4871 47.8317 40.3644 47.7046 40.2753 47.5374C40.1862 47.368 40.1416 47.1629 40.1416 46.9222C40.1416 46.744 40.1672 46.5846 40.2184 46.4442C40.272 46.3037 40.3456 46.1845 40.4392 46.0864C40.535 45.9861 40.6453 45.9103 40.7701 45.8591C40.895 45.8078 41.0297 45.7822 41.1747 45.7822C41.3306 45.7822 41.4633 45.81 41.5725 45.8658C41.6817 45.9215 41.7697 45.9861 41.8366 46.0597L41.6294 46.297C41.5758 46.2436 41.5145 46.2012 41.4454 46.17C41.3764 46.1366 41.2906 46.1198 41.1881 46.1198C41.0587 46.1198 40.9451 46.1522 40.8471 46.2168C40.749 46.2792 40.6732 46.3695 40.6196 46.4876C40.5662 46.6058 40.5395 46.7473 40.5395 46.9122C40.5395 47.0771 40.5651 47.2198 40.6163 47.3402C40.6675 47.4605 40.7423 47.5531 40.8403 47.6177C40.9406 47.6801 41.0632 47.7113 41.2081 47.7113C41.2705 47.7113 41.3296 47.7035 41.3853 47.6878C41.4411 47.6701 41.4867 47.6456 41.5224 47.6143V47.1429H41.1078V46.8253H41.87V47.7881C41.7966 47.8617 41.6985 47.9241 41.5758 47.9754C41.4555 48.0244 41.3206 48.049 41.1714 48.049ZM43.0872 48.0089L43.7994 45.8223H44.2541L44.9662 48.0089H44.5584L44.224 46.8453C44.1884 46.7295 44.1538 46.6103 44.1203 46.4876C44.0891 46.365 44.0579 46.2436 44.0267 46.1233H44.0134C43.9844 46.2458 43.9532 46.3683 43.9197 46.491C43.8885 46.6113 43.8551 46.7295 43.8194 46.8453L43.4818 48.0089H43.0872ZM43.5085 47.4171V47.1128H44.5383V47.4171H43.5085Z" fill="#072542"/>
<path d="M37.9535 19.631C37.7641 19.631 37.597 19.5854 37.4521 19.4939C37.3073 19.4003 37.1936 19.2688 37.111 19.0994C37.0309 18.9278 36.9907 18.7239 36.9907 18.4876C36.9907 18.2514 37.0309 18.0496 37.111 17.8825C37.1936 17.7153 37.3073 17.5871 37.4521 17.498C37.597 17.4088 37.7641 17.3643 37.9535 17.3643C38.1453 17.3643 38.3135 17.4088 38.4584 17.498C38.6033 17.5871 38.7159 17.7153 38.7962 17.8825C38.8786 18.0496 38.9198 18.2514 38.9198 18.4876C38.9198 18.7239 38.8786 18.9278 38.7962 19.0994C38.7159 19.2688 38.6033 19.4003 38.4584 19.4939C38.3135 19.5854 38.1453 19.631 37.9535 19.631ZM37.9535 19.2933C38.0695 19.2933 38.1687 19.2611 38.2511 19.1964C38.3359 19.1296 38.4016 19.0359 38.4484 18.9155C38.4952 18.793 38.5186 18.6503 38.5186 18.4876C38.5186 18.3248 38.4952 18.1856 38.4484 18.0696C38.4016 17.9516 38.3359 17.8613 38.2511 17.7989C38.1687 17.7342 38.0695 17.7019 37.9535 17.7019C37.8399 17.7019 37.7407 17.7342 37.6561 17.7989C37.5713 17.8613 37.5056 17.9516 37.4588 18.0696C37.412 18.1856 37.3886 18.3248 37.3886 18.4876C37.3886 18.6503 37.412 18.793 37.4588 18.9155C37.5056 19.0359 37.5713 19.1296 37.6561 19.1964C37.7407 19.2611 37.8399 19.2933 37.9535 19.2933ZM40.0593 19.5909V17.4044H40.4472V19.2633H41.3565V19.5909H40.0593ZM43.1477 19.631C43.0207 19.631 42.9059 19.6131 42.8034 19.5775C42.7031 19.5418 42.6161 19.4851 42.5425 19.407C42.4712 19.329 42.4155 19.2276 42.3754 19.1027C42.3375 18.9779 42.3185 18.8275 42.3185 18.6514V17.4044H42.7064V18.6815C42.7064 18.8353 42.7242 18.9568 42.7599 19.046C42.7978 19.1351 42.8501 19.1987 42.917 19.2364C42.9839 19.2744 43.0607 19.2933 43.1477 19.2933C43.2368 19.2933 43.3149 19.2744 43.3818 19.2364C43.4509 19.1987 43.5043 19.1351 43.5422 19.046C43.5824 18.9568 43.6024 18.8353 43.6024 18.6815V17.4044H43.9735V18.6514C43.9735 18.8275 43.9546 18.9779 43.9167 19.1027C43.8788 19.2276 43.8231 19.329 43.7495 19.407C43.6782 19.4851 43.5913 19.5418 43.4888 19.5775C43.3885 19.6131 43.2748 19.631 43.1477 19.631ZM45.6628 19.5909V17.732H45.031V17.4044H46.6826V17.732H46.0507V19.5909H45.6628ZM47.7488 19.5909V17.4044H48.1365V19.5909H47.7488ZM50.2436 19.631C50.0541 19.631 49.887 19.5854 49.7421 19.4939C49.5973 19.4003 49.4836 19.2688 49.401 19.0994C49.3209 18.9278 49.2807 18.7239 49.2807 18.4876C49.2807 18.2514 49.3209 18.0496 49.401 17.8825C49.4836 17.7153 49.5973 17.5871 49.7421 17.498C49.887 17.4088 50.0541 17.3643 50.2436 17.3643C50.4353 17.3643 50.6035 17.4088 50.7485 17.498C50.8934 17.5871 51.0059 17.7153 51.0862 17.8825C51.1686 18.0496 51.2098 18.2514 51.2098 18.4876C51.2098 18.7239 51.1686 18.9278 51.0862 19.0994C51.0059 19.2688 50.8934 19.4003 50.7485 19.4939C50.6035 19.5854 50.4353 19.631 50.2436 19.631ZM50.2436 19.2933C50.3595 19.2933 50.4587 19.2611 50.5411 19.1964C50.6259 19.1296 50.6916 19.0359 50.7384 18.9155C50.7852 18.793 50.8086 18.6503 50.8086 18.4876C50.8086 18.3248 50.7852 18.1856 50.7384 18.0696C50.6916 17.9516 50.6259 17.8613 50.5411 17.7989C50.4587 17.7342 50.3595 17.7019 50.2436 17.7019C50.13 17.7019 50.0307 17.7342 49.9461 17.7989C49.8613 17.8613 49.7956 17.9516 49.7488 18.0696C49.7019 18.1856 49.6786 18.3248 49.6786 18.4876C49.6786 18.6503 49.7019 18.793 49.7488 18.9155C49.7956 19.0359 49.8613 19.1296 49.9461 19.1964C50.0307 19.2611 50.13 19.2933 50.2436 19.2933ZM52.3493 19.5909V17.4044H52.7739L53.4293 18.608C53.4694 18.6815 53.5073 18.7606 53.543 18.8454C53.5808 18.93 53.6164 19.0158 53.6499 19.1027H53.6633C53.6543 18.9846 53.6443 18.8621 53.6331 18.735C53.6221 18.6057 53.6164 18.4809 53.6164 18.3605V17.4044H53.9876V19.5909H53.563L52.9076 18.3873C52.8676 18.3138 52.8275 18.2347 52.7873 18.1499C52.7494 18.0653 52.7138 17.9795 52.6803 17.8925H52.6669C52.6803 18.0062 52.6926 18.1277 52.7038 18.2569C52.7149 18.3839 52.7205 18.5099 52.7205 18.6347V19.5909H52.3493ZM55.8873 19.631C55.7358 19.631 55.592 19.6031 55.456 19.5475C55.3223 19.4917 55.203 19.4126 55.0984 19.31L55.309 19.056C55.3869 19.1318 55.4772 19.1908 55.5797 19.2332C55.6845 19.2733 55.7893 19.2933 55.894 19.2933C56.0188 19.2933 56.1136 19.2678 56.1782 19.2164C56.2428 19.1652 56.2752 19.0972 56.2752 19.0125C56.2752 18.9523 56.2607 18.9044 56.2317 18.8687C56.2027 18.8308 56.1627 18.7985 56.1113 18.7718C56.0624 18.745 56.0043 18.7183 55.9375 18.6915L55.6366 18.5611C55.5652 18.5299 55.4951 18.4899 55.426 18.4408C55.3591 18.3896 55.3033 18.3271 55.2588 18.2536C55.2164 18.1778 55.1953 18.0863 55.1953 17.9795C55.1953 17.8635 55.2265 17.7599 55.2888 17.6684C55.3535 17.5749 55.4405 17.5013 55.5497 17.4478C55.6611 17.392 55.7882 17.3643 55.9308 17.3643C56.0624 17.3643 56.186 17.3887 56.3019 17.4378C56.42 17.4846 56.5203 17.5492 56.6028 17.6317L56.3989 17.8857C56.3276 17.8278 56.2528 17.7832 56.1749 17.752C56.0969 17.7186 56.0155 17.7019 55.9308 17.7019C55.8282 17.7019 55.7446 17.7253 55.68 17.7722C55.6176 17.8166 55.5864 17.8792 55.5864 17.9593C55.5864 18.0151 55.6021 18.0619 55.6333 18.0998C55.6667 18.1354 55.7102 18.1666 55.7636 18.1933C55.8194 18.218 55.8763 18.2424 55.9342 18.2669L56.2317 18.3906C56.3186 18.4285 56.3955 18.4732 56.4624 18.5244C56.5292 18.5757 56.5806 18.6381 56.6162 18.7115C56.6541 18.7851 56.673 18.8754 56.673 18.9824C56.673 19.1005 56.6418 19.2087 56.5794 19.3067C56.517 19.4048 56.4267 19.4839 56.3086 19.544C56.1927 19.6021 56.0522 19.631 55.8873 19.631Z" fill="#E09E07"/>
<path d="M29.7832 33.8152C27.5 36.8011 26.3596 40.0302 26.3596 43.5024C26.3596 47.6301 28.0933 50.836 31.5631 53.1218C33.5825 54.4834 35.8767 55.1643 38.4444 55.1643C41.0147 55.1643 43.2456 54.6585 45.1361 53.6469C48.6923 51.8014 50.691 48.706 51.1323 44.3584C51.1738 44.0508 51.1955 43.7432 51.1955 43.4344C51.1955 41.8101 50.7446 40.0545 49.8437 38.1677C48.9452 36.2783 47.4862 34.5422 45.4668 32.9592L33.6056 23.6025C31.0149 21.5832 29.72 18.9704 29.72 15.7632C29.72 12.5572 30.7509 9.84475 32.813 7.62716C34.8773 5.40958 37.6676 4.30078 41.1824 4.30078C42.9393 4.30078 44.8504 4.51962 46.916 4.9573H49.5518L49.6832 13.0641H49.0218C48.9793 10.9535 48.2217 9.29522 46.7507 8.08916C45.2784 6.88068 43.434 6.27522 41.2164 6.27522C38.9989 6.27522 37.1423 7.01198 35.6481 8.48307C34.1528 9.95538 33.4063 11.8435 33.4063 14.1486C33.4063 16.4537 34.3716 18.3771 36.3047 19.9163L48.4966 29.5355C53.3268 33.3556 55.7426 37.967 55.7426 43.3712C55.7426 47.4113 54.139 50.8798 50.933 53.7783C48.1671 56.284 44.4771 57.5375 39.8645 57.5375C37.0536 57.5375 34.5503 57.0086 32.3558 55.9521C28.2246 54.019 25.7432 50.7267 24.9104 46.0702C24.7766 45.3674 24.7109 44.4788 24.7109 43.4052C24.7109 42.3292 25.0174 40.8569 25.6301 38.9895C26.2453 37.1221 27.4319 35.2437 29.1899 33.3531L29.7832 33.8152Z" fill="#E09E07"/>
<path d="M63.9688 76.0231C62.7985 76.7753 61.0517 76.9517 59.6257 76.9517C58.1983 76.9517 56.9363 76.8641 55.8373 76.689C54.7381 76.514 53.5625 76.1735 52.3115 75.6678C51.0592 75.162 49.8847 74.5796 48.7857 73.922C47.689 73.263 46.5924 72.4508 45.4934 71.4855C43.4727 69.8575 41.6394 68.0983 39.9932 66.2089C38.3457 64.322 35.1714 60.7768 30.4711 55.5733C25.7733 50.3674 22.6537 46.9073 21.1145 45.1954C19.5777 43.4835 18.3924 42.5839 17.5595 42.4964V41.835C20.1078 41.835 21.8099 41.7803 22.6658 41.6696C23.5217 41.5601 24.4324 41.362 25.3989 41.0763C26.3643 40.7918 27.1764 40.4077 27.8354 39.9237C30.4286 38.2545 31.7259 35.4874 31.7259 31.6224C31.7259 28.4163 31.011 25.8475 29.5812 23.9143C28.1538 21.9824 26.1454 20.9941 23.5557 20.9478H15.3857V60.2175C15.3857 61.3167 15.7906 62.2844 16.6015 63.1208C17.4149 63.9549 18.4155 64.3708 19.6021 64.3708H20.3898L20.458 65.0273H6.02905V64.3708H6.88496C7.98404 64.3708 8.94936 63.9756 9.78339 63.1842C10.6199 62.3938 11.0587 61.4273 11.1013 60.2857V23.7149C11.0587 22.5746 10.6308 21.5983 9.81744 20.7874C9.00286 19.9739 8.02537 19.5667 6.88496 19.5667H6.02905V18.9053H23.8184C27.6821 18.9053 30.7896 19.9935 33.1411 22.1684C35.4911 24.3447 36.6667 27.2212 36.6667 30.8005C36.6667 34.3798 35.5896 37.4557 33.4377 40.0259C31.2845 42.5936 28.6487 43.8774 25.5302 43.8774C25.5302 43.8774 25.5083 43.8774 25.467 43.8774C26.9576 45.4604 28.6487 47.3048 30.5393 49.4117C38.1379 57.803 43.0132 63.0722 45.1627 65.2217C47.3146 67.3738 49.2149 69.1427 50.8623 70.5274C52.5084 71.911 53.9698 72.9323 55.244 73.5912C57.8372 74.9979 61.6009 75.8821 62.952 75.7019C64.3031 75.5215 64.8881 74.2678 64.8881 73.8499V74.7693L64.721 75.4379L64.3867 75.7724L63.9688 76.0231Z" fill="#003B73"/>
</g>
<path d="M75.624 31.789L76.888 31.629V22.061L75.688 21.837V20.861H78.008C78.2107 20.861 78.4347 20.8557 78.68 20.845C78.9253 20.8344 79.112 20.8237 79.24 20.813C79.7947 20.7704 80.2533 20.749 80.616 20.749C81.7147 20.749 82.5947 20.861 83.256 21.085C83.9173 21.309 84.3973 21.6504 84.696 22.109C84.9947 22.5677 85.144 23.1704 85.144 23.917C85.144 24.653 84.9467 25.3357 84.552 25.965C84.1573 26.5944 83.5867 27.0264 82.84 27.261C83.2667 27.4424 83.6453 27.773 83.976 28.253C84.3067 28.733 84.6587 29.357 85.032 30.125C85.2987 30.6477 85.5013 31.0264 85.64 31.261C85.7893 31.485 85.9333 31.613 86.072 31.645L86.6 31.805V32.749H83.88C83.7093 32.749 83.528 32.5784 83.336 32.237C83.1547 31.885 82.9147 31.3357 82.616 30.589C82.264 29.7144 81.96 29.0317 81.704 28.541C81.448 28.0504 81.176 27.7464 80.888 27.629H79.24V31.629L80.712 31.789V32.749H75.624V31.789ZM80.712 26.653C81.32 26.653 81.7947 26.4344 82.136 25.997C82.4773 25.5597 82.648 24.9037 82.648 24.029C82.648 23.2504 82.4773 22.6744 82.136 22.301C81.8053 21.9277 81.2293 21.741 80.408 21.741C80.1093 21.741 79.8533 21.757 79.64 21.789C79.4373 21.8104 79.304 21.821 79.24 21.821V26.621C79.368 26.6424 79.6773 26.653 80.168 26.653H80.712ZM87.2513 28.317C87.2513 27.3144 87.4486 26.461 87.8433 25.757C88.2486 25.053 88.7873 24.525 89.4593 24.173C90.1313 23.8104 90.8619 23.629 91.6513 23.629C92.9953 23.629 94.0299 24.045 94.7552 24.877C95.4913 25.6984 95.8593 26.8184 95.8593 28.237C95.8593 29.2504 95.6566 30.1144 95.2513 30.829C94.8566 31.533 94.3233 32.061 93.6513 32.413C92.9899 32.7544 92.2593 32.925 91.4593 32.925C90.1259 32.925 89.0913 32.5144 88.3553 31.693C87.6193 30.861 87.2513 29.7357 87.2513 28.317ZM91.5873 31.885C92.7926 31.885 93.3953 30.7224 93.3953 28.397C93.3953 27.181 93.2513 26.2584 92.9633 25.629C92.6753 24.989 92.2059 24.669 91.5553 24.669C90.3179 24.669 89.6993 25.8317 89.6993 28.157C89.6993 29.373 89.8486 30.301 90.1473 30.941C90.4566 31.5704 90.9366 31.885 91.5873 31.885ZM97.3138 31.789L98.2098 31.645V25.373L97.1858 25.085V23.981L99.8418 23.645L100.034 23.773L100.274 24.301V24.973C100.626 24.6317 101.127 24.333 101.778 24.077C102.439 23.8104 103.01 23.677 103.49 23.677C104.066 23.677 104.53 23.773 104.882 23.965C105.244 24.157 105.516 24.4557 105.698 24.861C106.05 24.541 106.514 24.2637 107.09 24.029C107.666 23.7944 108.231 23.677 108.786 23.677C109.735 23.677 110.407 23.9544 110.802 24.509C111.196 25.0637 111.394 25.9704 111.394 27.229V31.645L112.434 31.789V32.749H108.29V31.789L109.122 31.645V27.293C109.122 26.461 109.02 25.8797 108.818 25.549C108.626 25.2077 108.252 25.037 107.698 25.037C107.399 25.037 107.09 25.1064 106.77 25.245C106.46 25.373 106.183 25.533 105.938 25.725C106.012 26.1304 106.05 26.637 106.05 27.245V31.645L107.042 31.789V32.749H102.866V31.789L103.746 31.645V27.245C103.746 26.6904 103.708 26.2584 103.634 25.949C103.57 25.629 103.442 25.3997 103.25 25.261C103.058 25.1117 102.78 25.037 102.418 25.037C102.076 25.037 101.735 25.117 101.394 25.277C101.063 25.4264 100.764 25.6077 100.498 25.821V31.645L101.442 31.789V32.749H97.3138V31.789ZM117.549 32.925C116.141 32.925 115.09 32.5144 114.397 31.693C113.714 30.861 113.373 29.7304 113.373 28.301C113.373 27.341 113.549 26.509 113.901 25.805C114.264 25.101 114.77 24.5624 115.421 24.189C116.072 23.8157 116.824 23.629 117.677 23.629C118.744 23.629 119.565 23.9117 120.141 24.477C120.717 25.0317 121.016 25.8264 121.037 26.861C121.037 27.565 120.994 28.0877 120.909 28.429H115.709C115.752 29.3997 115.981 30.157 116.397 30.701C116.813 31.2344 117.405 31.501 118.173 31.501C118.589 31.501 119.016 31.4317 119.453 31.293C119.901 31.1544 120.253 30.989 120.509 30.797L120.909 31.677C120.621 31.9864 120.152 32.2744 119.501 32.541C118.861 32.797 118.21 32.925 117.549 32.925ZM118.797 27.469C118.818 27.1704 118.829 26.941 118.829 26.781C118.829 25.3624 118.354 24.653 117.405 24.653C116.882 24.653 116.477 24.861 116.189 25.277C115.901 25.693 115.741 26.4237 115.709 27.469H118.797ZM126.186 37.069C124.756 37.069 123.722 36.845 123.082 36.397C122.442 35.949 122.122 35.341 122.122 34.573C122.122 34.1357 122.266 33.7197 122.554 33.325C122.852 32.941 123.21 32.653 123.626 32.461C123.135 32.173 122.89 31.7144 122.89 31.085C122.89 30.7224 123.007 30.381 123.242 30.061C123.476 29.7304 123.78 29.4744 124.154 29.293C123.567 29.069 123.13 28.7277 122.842 28.269C122.554 27.8104 122.41 27.2664 122.41 26.637C122.41 26.029 122.586 25.501 122.938 25.053C123.3 24.5944 123.78 24.2424 124.378 23.997C124.986 23.7517 125.642 23.629 126.346 23.629C127.594 23.629 128.522 23.869 129.13 24.349C129.268 24.1677 129.503 23.997 129.834 23.837C130.164 23.677 130.506 23.597 130.858 23.597H131.418V25.341H129.77C129.93 25.6824 130.01 26.045 130.01 26.429C130.02 27.3997 129.679 28.1784 128.986 28.765C128.292 29.341 127.343 29.629 126.138 29.629C125.636 29.629 125.215 29.5917 124.874 29.517C124.767 29.6557 124.682 29.805 124.618 29.965C124.564 30.1144 124.538 30.2477 124.538 30.365C124.538 30.717 124.66 30.957 124.906 31.085C125.162 31.213 125.615 31.277 126.266 31.277H127.978C130.154 31.277 131.242 32.0664 131.242 33.645C131.242 34.3064 131.007 34.8984 130.538 35.421C130.068 35.9437 129.444 36.349 128.666 36.637C127.887 36.925 127.06 37.069 126.186 37.069ZM126.298 28.637C127.29 28.637 127.786 27.9597 127.786 26.605C127.786 25.9117 127.658 25.405 127.402 25.085C127.156 24.7544 126.778 24.589 126.266 24.589C125.764 24.589 125.375 24.7544 125.098 25.085C124.831 25.405 124.698 25.8904 124.698 26.541C124.698 27.9384 125.231 28.637 126.298 28.637ZM126.426 35.965C127.098 35.965 127.679 35.7997 128.17 35.469C128.66 35.149 128.906 34.701 128.906 34.125C128.906 33.6664 128.783 33.3357 128.538 33.133C128.303 32.9304 127.876 32.829 127.258 32.829H125.514C125.247 32.829 125.002 32.813 124.778 32.781C124.49 33.165 124.346 33.6237 124.346 34.157C124.346 34.7437 124.506 35.1917 124.826 35.501C125.146 35.8104 125.679 35.965 126.426 35.965ZM132.091 30.253C132.091 29.2824 132.576 28.5517 133.547 28.061C134.528 27.5704 135.792 27.3197 137.339 27.309V26.941C137.339 26.5037 137.291 26.1624 137.195 25.917C137.11 25.6717 136.944 25.4904 136.699 25.373C136.464 25.245 136.118 25.181 135.659 25.181C135.136 25.181 134.667 25.2504 134.251 25.389C133.835 25.517 133.403 25.6877 132.955 25.901L132.459 24.877C132.619 24.7384 132.886 24.573 133.259 24.381C133.643 24.189 134.096 24.0237 134.619 23.885C135.142 23.7357 135.68 23.661 136.235 23.661C137.056 23.661 137.696 23.7677 138.155 23.981C138.624 24.1944 138.96 24.5357 139.163 25.005C139.366 25.4744 139.467 26.1037 139.467 26.893V31.789H140.331V32.685C140.118 32.7384 139.814 32.7917 139.419 32.845C139.024 32.8984 138.678 32.925 138.379 32.925C138.016 32.925 137.771 32.8717 137.643 32.765C137.526 32.6584 137.467 32.4397 137.467 32.109V31.677C137.179 31.997 136.806 32.285 136.347 32.541C135.888 32.797 135.371 32.925 134.795 32.925C134.304 32.925 133.851 32.8237 133.435 32.621C133.03 32.4077 132.704 32.1037 132.459 31.709C132.214 31.3037 132.091 30.8184 132.091 30.253ZM135.819 31.597C136.043 31.597 136.299 31.533 136.587 31.405C136.875 31.2664 137.126 31.101 137.339 30.909V28.285C136.379 28.285 135.659 28.4504 135.179 28.781C134.71 29.101 134.475 29.517 134.475 30.029C134.475 30.541 134.592 30.9304 134.827 31.197C135.072 31.4637 135.403 31.597 135.819 31.597ZM149.158 32.925C148.582 32.925 148.065 32.877 147.606 32.781C147.148 32.685 146.636 32.557 146.07 32.397C145.697 32.2904 145.446 32.2317 145.318 32.221L145.462 29.261H146.758L147.11 31.325C147.249 31.4744 147.494 31.6077 147.846 31.725C148.209 31.8424 148.62 31.901 149.078 31.901C149.793 31.901 150.326 31.7464 150.678 31.437C151.041 31.117 151.222 30.6744 151.222 30.109C151.222 29.7357 151.116 29.4157 150.902 29.149C150.689 28.8717 150.396 28.6264 150.022 28.413C149.649 28.189 149.137 27.933 148.486 27.645C147.601 27.2397 146.865 26.7597 146.278 26.205C145.702 25.6397 145.414 24.877 145.414 23.917C145.414 23.3197 145.569 22.781 145.878 22.301C146.188 21.8104 146.646 21.4264 147.254 21.149C147.873 20.861 148.625 20.717 149.51 20.717C150.033 20.717 150.492 20.7544 150.886 20.829C151.292 20.9037 151.729 21.005 152.198 21.133C152.476 21.2077 152.684 21.2557 152.822 21.277L152.726 24.077H151.446L151.11 22.109C151.014 22.013 150.822 21.9224 150.534 21.837C150.246 21.741 149.926 21.693 149.574 21.693C148.934 21.693 148.449 21.8424 148.118 22.141C147.798 22.429 147.638 22.8184 147.638 23.309C147.638 23.7037 147.756 24.045 147.99 24.333C148.236 24.621 148.529 24.8664 148.87 25.069C149.212 25.261 149.75 25.5384 150.486 25.901C151.084 26.189 151.596 26.4717 152.022 26.749C152.449 27.0264 152.817 27.389 153.126 27.837C153.436 28.2744 153.59 28.7917 153.59 29.389C153.59 29.9757 153.441 30.5357 153.142 31.069C152.854 31.6024 152.374 32.045 151.702 32.397C151.041 32.749 150.193 32.925 149.158 32.925ZM154.767 28.317C154.767 27.3144 154.964 26.461 155.359 25.757C155.764 25.053 156.303 24.525 156.975 24.173C157.647 23.8104 158.378 23.629 159.167 23.629C160.511 23.629 161.546 24.045 162.271 24.877C163.007 25.6984 163.375 26.8184 163.375 28.237C163.375 29.2504 163.172 30.1144 162.767 30.829C162.372 31.533 161.839 32.061 161.167 32.413C160.506 32.7544 159.775 32.925 158.975 32.925C157.642 32.925 156.607 32.5144 155.871 31.693C155.135 30.861 154.767 29.7357 154.767 28.317ZM159.103 31.885C160.308 31.885 160.911 30.7224 160.911 28.397C160.911 27.181 160.767 26.2584 160.479 25.629C160.191 24.989 159.722 24.669 159.071 24.669C157.834 24.669 157.215 25.8317 157.215 28.157C157.215 29.373 157.364 30.301 157.663 30.941C157.972 31.5704 158.452 31.885 159.103 31.885ZM165.757 21.053L164.573 20.845V19.981L167.533 19.629H167.565L167.997 19.933V31.661L169.165 31.789V32.749H164.637V31.789L165.757 31.645V21.053ZM177.483 32.909C177.131 32.909 176.875 32.8344 176.715 32.685C176.555 32.5357 176.475 32.3117 176.475 32.013V31.581C176.187 31.933 175.782 32.2477 175.259 32.525C174.736 32.7917 174.214 32.925 173.691 32.925C172.667 32.925 171.936 32.6637 171.499 32.141C171.062 31.6077 170.843 30.733 170.843 29.517V25.005L170.043 24.781V23.869L172.763 23.661H172.779L173.099 23.885V29.517C173.099 30.2957 173.195 30.8397 173.387 31.149C173.579 31.4584 173.936 31.613 174.459 31.613C175.088 31.613 175.675 31.3677 176.219 30.877V25.005L175.147 24.765V23.869L178.043 23.661H178.075L178.459 23.885V31.757H179.355L179.339 32.669C179.296 32.6797 179.099 32.7224 178.747 32.797C178.395 32.8717 177.974 32.909 177.483 32.909ZM183.174 32.893C182.502 32.893 182.006 32.7384 181.686 32.429C181.366 32.1197 181.206 31.629 181.206 30.957V25.085H180.166V24.253C180.251 24.221 180.406 24.1677 180.63 24.093C180.854 24.0077 181.024 23.9384 181.142 23.885C181.323 23.7464 181.478 23.5064 181.606 23.165C181.702 22.941 181.878 22.3864 182.134 21.501H183.414L183.478 23.853H185.926V25.085H183.494V29.581C183.494 30.1784 183.51 30.5997 183.542 30.845C183.574 31.0904 183.643 31.2504 183.75 31.325C183.856 31.389 184.043 31.421 184.31 31.421C184.576 31.421 184.854 31.3944 185.142 31.341C185.43 31.277 185.67 31.2024 185.862 31.117L186.166 32.013C185.867 32.237 185.43 32.4397 184.854 32.621C184.278 32.8024 183.718 32.893 183.174 32.893ZM188.921 22.397C188.537 22.397 188.233 22.285 188.009 22.061C187.785 21.837 187.673 21.549 187.673 21.197C187.673 20.7917 187.801 20.4557 188.057 20.189C188.313 19.9224 188.654 19.789 189.081 19.789C189.508 19.789 189.833 19.9064 190.057 20.141C190.281 20.365 190.393 20.6477 190.393 20.989C190.393 21.4157 190.265 21.757 190.009 22.013C189.753 22.269 189.396 22.397 188.937 22.397H188.921ZM188.073 25.373L186.937 25.069V23.997L189.865 23.645H189.897L190.345 23.965V31.661L191.417 31.789V32.749H186.953V31.789L188.073 31.645V25.373ZM192.564 28.317C192.564 27.3144 192.761 26.461 193.156 25.757C193.561 25.053 194.1 24.525 194.772 24.173C195.444 23.8104 196.174 23.629 196.964 23.629C198.308 23.629 199.342 24.045 200.068 24.877C200.804 25.6984 201.172 26.8184 201.172 28.237C201.172 29.2504 200.969 30.1144 200.564 30.829C200.169 31.533 199.636 32.061 198.964 32.413C198.302 32.7544 197.572 32.925 196.772 32.925C195.438 32.925 194.404 32.5144 193.668 31.693C192.932 30.861 192.564 29.7357 192.564 28.317ZM196.9 31.885C198.105 31.885 198.708 30.7224 198.708 28.397C198.708 27.181 198.564 26.2584 198.276 25.629C197.988 24.989 197.518 24.669 196.868 24.669C195.63 24.669 195.012 25.8317 195.012 28.157C195.012 29.373 195.161 30.301 195.46 30.941C195.769 31.5704 196.249 31.885 196.9 31.885ZM203.522 25.373L202.498 25.085V23.981L205.154 23.645H205.202L205.602 23.965V24.589L205.586 24.973C205.96 24.621 206.445 24.317 207.042 24.061C207.64 23.805 208.242 23.677 208.85 23.677C209.501 23.677 210.008 23.7997 210.37 24.045C210.744 24.2797 211.01 24.653 211.17 25.165C211.33 25.677 211.41 26.3704 211.41 27.245V31.661L212.386 31.789V32.749H208.258V31.789L209.122 31.661V27.245C209.122 26.6904 209.085 26.2584 209.01 25.949C208.936 25.629 208.797 25.3997 208.594 25.261C208.402 25.1117 208.125 25.037 207.762 25.037C207.154 25.037 206.504 25.2984 205.81 25.821V31.645L206.77 31.789V32.749H202.594V31.789L203.522 31.645V25.373ZM215.293 31.437C215.378 31.565 215.57 31.6877 215.869 31.805C216.178 31.9117 216.488 31.965 216.797 31.965C217.298 31.965 217.672 31.8637 217.917 31.661C218.173 31.4477 218.301 31.1704 218.301 30.829C218.301 30.477 218.146 30.1944 217.837 29.981C217.528 29.757 217.005 29.485 216.269 29.165L215.821 28.973C215.085 28.6637 214.536 28.2904 214.173 27.853C213.81 27.4157 213.629 26.8504 213.629 26.157C213.629 25.677 213.773 25.2504 214.061 24.877C214.349 24.493 214.754 24.1944 215.277 23.981C215.8 23.7677 216.402 23.661 217.085 23.661C217.586 23.661 218.013 23.693 218.365 23.757C218.728 23.821 219.106 23.9064 219.501 24.013C219.714 24.0877 219.874 24.1304 219.981 24.141V26.237H218.717L218.349 25.021C218.285 24.9144 218.141 24.8184 217.917 24.733C217.693 24.6477 217.437 24.605 217.149 24.605C216.712 24.605 216.36 24.701 216.093 24.893C215.837 25.0744 215.709 25.3304 215.709 25.661C215.709 25.9597 215.8 26.2104 215.981 26.413C216.162 26.605 216.36 26.7544 216.573 26.861C216.786 26.9677 217.181 27.1437 217.757 27.389C218.333 27.6344 218.808 27.869 219.181 28.093C219.565 28.317 219.88 28.6104 220.125 28.973C220.381 29.325 220.509 29.757 220.509 30.269C220.509 31.0584 220.2 31.6984 219.581 32.189C218.962 32.6797 218.072 32.925 216.909 32.925C216.365 32.925 215.874 32.877 215.437 32.781C215.01 32.685 214.514 32.557 213.949 32.397L213.597 32.285V30.173H214.925L215.293 31.437Z" fill="#00488D"/>
<line opacity="0.9" x1="75" y1="41.8745" x2="258.205" y2="41.8745" stroke="#D59707" stroke-width="0.752896"/>
<line opacity="0.9" x1="75" y1="41.3726" x2="258.205" y2="41.3726" stroke="#003B73" stroke-width="0.752896"/>
<path d="M76.26 56.251V47.067H81.552V48.047H77.422V50.931H80.908V51.925H77.422V55.257H81.692V56.251H76.26ZM82.155 56.251L84.381 52.695L82.323 49.447H83.569L84.479 50.945C84.5817 51.1223 84.689 51.309 84.801 51.505C84.9223 51.6916 85.039 51.883 85.151 52.079H85.207C85.3097 51.883 85.4123 51.6916 85.515 51.505C85.6177 51.309 85.7203 51.1223 85.823 50.945L86.649 49.447H87.853L85.795 52.821L88.007 56.251H86.761L85.767 54.669C85.6457 54.4636 85.5197 54.2583 85.389 54.053C85.2677 53.8476 85.1463 53.647 85.025 53.451H84.969C84.8477 53.647 84.731 53.8476 84.619 54.053C84.507 54.249 84.395 54.4543 84.283 54.669L83.359 56.251H82.155ZM91.8669 56.419C91.2603 56.419 90.7049 56.279 90.2009 55.999C89.7063 55.7096 89.3143 55.3036 89.0249 54.781C88.7356 54.249 88.5909 53.605 88.5909 52.849C88.5909 52.1116 88.7403 51.477 89.0389 50.945C89.3376 50.413 89.7203 50.0023 90.1869 49.713C90.6536 49.4236 91.1483 49.279 91.6709 49.279C92.2496 49.279 92.7396 49.4143 93.1409 49.685C93.5516 49.9463 93.8596 50.315 94.0649 50.791C94.2703 51.267 94.3729 51.827 94.3729 52.471C94.3729 52.5923 94.3683 52.709 94.3589 52.821C94.3589 52.933 94.3449 53.045 94.3169 53.157H89.4169V52.247H93.3369C93.3369 51.5936 93.1923 51.0943 92.9029 50.749C92.6229 50.3943 92.2169 50.217 91.6849 50.217C91.3769 50.217 91.0736 50.3056 90.7749 50.483C90.4763 50.651 90.2289 50.9263 90.0329 51.309C89.8463 51.6916 89.7529 52.2003 89.7529 52.835C89.7529 53.4136 89.8509 53.899 90.0469 54.291C90.2523 54.683 90.5276 54.9816 90.8729 55.187C91.2183 55.383 91.5963 55.481 92.0069 55.481C92.3336 55.481 92.6369 55.4343 92.9169 55.341C93.2063 55.2476 93.4676 55.1216 93.7009 54.963L94.1209 55.719C93.8223 55.9243 93.4863 56.0923 93.1129 56.223C92.7489 56.3536 92.3336 56.419 91.8669 56.419ZM98.7563 56.419C98.1496 56.419 97.6036 56.279 97.1183 55.999C96.6329 55.719 96.2503 55.313 95.9703 54.781C95.6903 54.249 95.5503 53.6096 95.5503 52.863C95.5503 52.0976 95.6996 51.449 95.9983 50.917C96.3063 50.385 96.7076 49.979 97.2023 49.699C97.7063 49.419 98.2476 49.279 98.8263 49.279C99.2743 49.279 99.6569 49.3536 99.9743 49.503C100.301 49.6523 100.581 49.8436 100.814 50.077L100.24 50.791C100.072 50.623 99.8716 50.4923 99.6383 50.399C99.4143 50.2963 99.1576 50.245 98.8683 50.245C98.4669 50.245 98.1029 50.357 97.7763 50.581C97.4589 50.7956 97.2069 51.099 97.0203 51.491C96.8336 51.883 96.7403 52.3403 96.7403 52.863C96.7403 53.3763 96.8289 53.829 97.0063 54.221C97.1836 54.613 97.4309 54.921 97.7483 55.145C98.0656 55.3596 98.4343 55.467 98.8543 55.467C99.1716 55.467 99.4656 55.4063 99.7363 55.285C100.007 55.1636 100.24 55.0096 100.436 54.823L100.94 55.523C100.651 55.7936 100.324 56.013 99.9603 56.181C99.5963 56.3396 99.1949 56.419 98.7563 56.419ZM104.427 56.419C103.708 56.419 103.181 56.195 102.845 55.747C102.518 55.2896 102.355 54.627 102.355 53.759V49.447H103.503V53.605C103.503 54.2396 103.601 54.7016 103.797 54.991C104.002 55.271 104.329 55.411 104.777 55.411C105.122 55.411 105.43 55.3223 105.701 55.145C105.981 54.9583 106.284 54.669 106.611 54.277V49.447H107.759V56.251H106.807L106.709 55.187H106.667C106.359 55.5603 106.023 55.859 105.659 56.083C105.304 56.307 104.894 56.419 104.427 56.419ZM112.196 56.377C111.478 56.377 110.974 56.167 110.684 55.747C110.395 55.327 110.25 54.781 110.25 54.109V50.385H109.242V49.517L110.306 49.447L110.446 47.263H111.412V49.447H113.26V50.385H111.412V54.123C111.412 54.5336 111.487 54.8556 111.636 55.089C111.795 55.3223 112.07 55.439 112.462 55.439C112.584 55.439 112.71 55.4296 112.84 55.411C112.971 55.383 113.102 55.3363 113.232 55.271L113.484 56.083C113.307 56.167 113.106 56.237 112.882 56.293C112.658 56.349 112.43 56.377 112.196 56.377ZM114.785 56.251V49.447H115.933V56.251H114.785ZM115.359 48.047C115.135 48.047 114.948 47.977 114.799 47.837C114.659 47.697 114.589 47.515 114.589 47.291C114.589 47.067 114.659 46.885 114.799 46.745C114.948 46.605 115.135 46.535 115.359 46.535C115.583 46.535 115.765 46.605 115.905 46.745C116.054 46.885 116.129 47.067 116.129 47.291C116.129 47.515 116.054 47.697 115.905 47.837C115.765 47.977 115.583 48.047 115.359 48.047ZM119.7 56.251L117.25 49.447H118.44L119.728 53.311C119.831 53.6376 119.933 53.9736 120.036 54.319C120.148 54.655 120.255 54.9863 120.358 55.313H120.414C120.507 54.9863 120.61 54.655 120.722 54.319C120.834 53.9736 120.937 53.6376 121.03 53.311L122.318 49.447H123.452L121.044 56.251H119.7ZM127.469 56.419C126.862 56.419 126.307 56.279 125.803 55.999C125.308 55.7096 124.916 55.3036 124.627 54.781C124.337 54.249 124.193 53.605 124.193 52.849C124.193 52.1116 124.342 51.477 124.641 50.945C124.939 50.413 125.322 50.0023 125.789 49.713C126.255 49.4236 126.75 49.279 127.273 49.279C127.851 49.279 128.341 49.4143 128.743 49.685C129.153 49.9463 129.461 50.315 129.667 50.791C129.872 51.267 129.975 51.827 129.975 52.471C129.975 52.5923 129.97 52.709 129.961 52.821C129.961 52.933 129.947 53.045 129.919 53.157H125.019V52.247H128.939C128.939 51.5936 128.794 51.0943 128.505 50.749C128.225 50.3943 127.819 50.217 127.287 50.217C126.979 50.217 126.675 50.3056 126.377 50.483C126.078 50.651 125.831 50.9263 125.635 51.309C125.448 51.6916 125.355 52.2003 125.355 52.835C125.355 53.4136 125.453 53.899 125.649 54.291C125.854 54.683 126.129 54.9816 126.475 55.187C126.82 55.383 127.198 55.481 127.609 55.481C127.935 55.481 128.239 55.4343 128.519 55.341C128.808 55.2476 129.069 55.1216 129.303 54.963L129.723 55.719C129.424 55.9243 129.088 56.0923 128.715 56.223C128.351 56.3536 127.935 56.419 127.469 56.419ZM136.475 56.251V48.061H133.703V47.067H140.423V48.061H137.651V56.251H136.475ZM142.521 56.419C142.147 56.419 141.807 56.3443 141.499 56.195C141.2 56.0363 140.962 55.817 140.785 55.537C140.607 55.2476 140.519 54.8976 140.519 54.487C140.519 53.7216 140.855 53.143 141.527 52.751C142.199 52.359 143.263 52.0836 144.719 51.925C144.709 51.645 144.663 51.3743 144.579 51.113C144.504 50.8516 144.364 50.6416 144.159 50.483C143.953 50.3243 143.669 50.245 143.305 50.245C142.913 50.245 142.544 50.3196 142.199 50.469C141.853 50.609 141.545 50.7676 141.275 50.945L140.827 50.161C141.032 50.021 141.275 49.8856 141.555 49.755C141.835 49.615 142.138 49.503 142.465 49.419C142.791 49.3256 143.137 49.279 143.501 49.279C144.051 49.279 144.499 49.3956 144.845 49.629C145.199 49.853 145.456 50.175 145.615 50.595C145.783 51.015 145.867 51.5096 145.867 52.079V56.251H144.915L144.817 55.439H144.775C144.448 55.7096 144.098 55.943 143.725 56.139C143.351 56.3256 142.95 56.419 142.521 56.419ZM142.843 55.467C143.179 55.467 143.491 55.3923 143.781 55.243C144.079 55.0936 144.392 54.8743 144.719 54.585V52.751C143.953 52.8443 143.347 52.9656 142.899 53.115C142.46 53.255 142.143 53.4323 141.947 53.647C141.751 53.8616 141.653 54.1183 141.653 54.417C141.653 54.7903 141.769 55.061 142.003 55.229C142.236 55.3876 142.516 55.467 142.843 55.467ZM149.225 56.377C148.936 56.377 148.703 56.321 148.525 56.209C148.348 56.0876 148.217 55.915 148.133 55.691C148.049 55.4576 148.007 55.1776 148.007 54.851V46.283H149.155V54.935C149.155 55.1216 149.188 55.2523 149.253 55.327C149.319 55.3923 149.398 55.425 149.491 55.425C149.529 55.425 149.561 55.425 149.589 55.425C149.627 55.4156 149.673 55.4063 149.729 55.397L149.897 56.265C149.813 56.293 149.715 56.3163 149.603 56.335C149.501 56.363 149.375 56.377 149.225 56.377ZM154.334 56.419C153.727 56.419 153.172 56.279 152.668 55.999C152.173 55.7096 151.781 55.3036 151.492 54.781C151.202 54.249 151.058 53.605 151.058 52.849C151.058 52.1116 151.207 51.477 151.506 50.945C151.804 50.413 152.187 50.0023 152.654 49.713C153.12 49.4236 153.615 49.279 154.138 49.279C154.716 49.279 155.206 49.4143 155.608 49.685C156.018 49.9463 156.326 50.315 156.532 50.791C156.737 51.267 156.84 51.827 156.84 52.471C156.84 52.5923 156.835 52.709 156.826 52.821C156.826 52.933 156.812 53.045 156.784 53.157H151.884V52.247H155.804C155.804 51.5936 155.659 51.0943 155.37 50.749C155.09 50.3943 154.684 50.217 154.152 50.217C153.844 50.217 153.54 50.3056 153.242 50.483C152.943 50.651 152.696 50.9263 152.5 51.309C152.313 51.6916 152.22 52.2003 152.22 52.835C152.22 53.4136 152.318 53.899 152.514 54.291C152.719 54.683 152.994 54.9816 153.34 55.187C153.685 55.383 154.063 55.481 154.474 55.481C154.8 55.481 155.104 55.4343 155.384 55.341C155.673 55.2476 155.934 55.1216 156.168 54.963L156.588 55.719C156.289 55.9243 155.953 56.0923 155.58 56.223C155.216 56.3536 154.8 56.419 154.334 56.419ZM158.521 56.251V49.447H159.473L159.571 50.427H159.613C159.94 50.1003 160.285 49.8296 160.649 49.615C161.013 49.391 161.428 49.279 161.895 49.279C162.614 49.279 163.136 49.5076 163.463 49.965C163.799 50.413 163.967 51.071 163.967 51.939V56.251H162.819V52.093C162.819 51.449 162.716 50.987 162.511 50.707C162.315 50.4176 161.988 50.273 161.531 50.273C161.186 50.273 160.873 50.3616 160.593 50.539C160.322 50.7163 160.014 50.9776 159.669 51.323V56.251H158.521ZM168.319 56.377C167.601 56.377 167.097 56.167 166.807 55.747C166.518 55.327 166.373 54.781 166.373 54.109V50.385H165.365V49.517L166.429 49.447L166.569 47.263H167.535V49.447H169.383V50.385H167.535V54.123C167.535 54.5336 167.61 54.8556 167.759 55.089C167.918 55.3223 168.193 55.439 168.585 55.439C168.707 55.439 168.833 55.4296 168.963 55.411C169.094 55.383 169.225 55.3363 169.355 55.271L169.607 56.083C169.43 56.167 169.229 56.237 169.005 56.293C168.781 56.349 168.553 56.377 168.319 56.377ZM175.867 56.419C175.316 56.419 174.826 56.3163 174.397 56.111C173.967 55.9056 173.627 55.6116 173.375 55.229C173.132 54.8463 173.011 54.3936 173.011 53.871C173.011 53.423 173.109 53.0263 173.305 52.681C173.51 52.3356 173.771 52.0323 174.089 51.771C174.415 51.5003 174.756 51.253 175.111 51.029C175.465 50.7956 175.801 50.567 176.119 50.343C176.436 50.1096 176.697 49.867 176.903 49.615C177.108 49.3536 177.211 49.0596 177.211 48.733C177.211 48.4623 177.141 48.229 177.001 48.033C176.87 47.8276 176.651 47.725 176.343 47.725C176.007 47.725 175.731 47.851 175.517 48.103C175.311 48.355 175.209 48.6723 175.209 49.055C175.209 49.4936 175.316 49.9556 175.531 50.441C175.745 50.917 176.025 51.393 176.371 51.869C176.725 52.345 177.117 52.7976 177.547 53.227C177.985 53.6563 178.424 54.039 178.863 54.375C179.227 54.655 179.586 54.8836 179.941 55.061C180.305 55.2383 180.617 55.3736 180.879 55.467L180.571 56.419C180.207 56.3163 179.819 56.1576 179.409 55.943C179.007 55.7283 178.592 55.4623 178.163 55.145C177.668 54.753 177.183 54.3096 176.707 53.815C176.231 53.3203 175.806 52.8023 175.433 52.261C175.059 51.7103 174.761 51.1643 174.537 50.623C174.322 50.0816 174.215 49.5636 174.215 49.069C174.215 48.6676 174.303 48.3036 174.481 47.977C174.658 47.641 174.905 47.3796 175.223 47.193C175.54 46.997 175.913 46.899 176.343 46.899C176.912 46.899 177.355 47.067 177.673 47.403C177.99 47.739 178.149 48.1776 178.149 48.719C178.149 49.111 178.051 49.4656 177.855 49.783C177.659 50.091 177.407 50.3756 177.099 50.637C176.8 50.8983 176.478 51.1503 176.133 51.393C175.787 51.6356 175.461 51.8783 175.153 52.121C174.854 52.3543 174.607 52.611 174.41 52.891C174.224 53.1616 174.131 53.465 174.131 53.801C174.131 54.1556 174.21 54.459 174.369 54.711C174.537 54.963 174.756 55.159 175.027 55.299C175.307 55.4296 175.61 55.495 175.937 55.495C176.329 55.495 176.702 55.397 177.057 55.201C177.411 54.9956 177.743 54.7343 178.051 54.417C178.424 54.0156 178.751 53.5536 179.031 53.031C179.311 52.499 179.53 51.9203 179.689 51.295H180.767C180.58 51.9763 180.323 52.6296 179.997 53.255C179.679 53.8803 179.297 54.4543 178.849 54.977C178.475 55.397 178.046 55.7423 177.561 56.013C177.085 56.2836 176.52 56.419 175.867 56.419ZM185.156 56.251V47.067H186.626L188.362 51.981C188.474 52.289 188.577 52.597 188.67 52.905C188.773 53.213 188.876 53.5396 188.978 53.885H189.034C189.137 53.5396 189.235 53.213 189.328 52.905C189.422 52.597 189.52 52.289 189.622 51.981L191.358 47.067H192.814V56.251H191.722V51.197C191.722 50.9263 191.732 50.623 191.75 50.287C191.769 49.951 191.788 49.6196 191.806 49.293C191.834 48.957 191.862 48.6536 191.89 48.383H191.834L191.12 50.595L189.398 55.341H188.544L186.822 50.595L186.108 48.383H186.052C186.08 48.6536 186.104 48.957 186.122 49.293C186.15 49.6196 186.174 49.951 186.192 50.287C186.211 50.623 186.22 50.9263 186.22 51.197V56.251H185.156ZM196.784 56.419C196.411 56.419 196.07 56.3443 195.762 56.195C195.464 56.0363 195.226 55.817 195.048 55.537C194.871 55.2476 194.782 54.8976 194.782 54.487C194.782 53.7216 195.118 53.143 195.79 52.751C196.462 52.359 197.526 52.0836 198.982 51.925C198.973 51.645 198.926 51.3743 198.842 51.113C198.768 50.8516 198.628 50.6416 198.422 50.483C198.217 50.3243 197.932 50.245 197.568 50.245C197.176 50.245 196.808 50.3196 196.462 50.469C196.117 50.609 195.809 50.7676 195.538 50.945L195.09 50.161C195.296 50.021 195.538 49.8856 195.818 49.755C196.098 49.615 196.402 49.503 196.728 49.419C197.055 49.3256 197.4 49.279 197.764 49.279C198.315 49.279 198.763 49.3956 199.108 49.629C199.463 49.853 199.72 50.175 199.878 50.595C200.046 51.015 200.13 51.5096 200.13 52.079V56.251H199.178L199.08 55.439H199.038C198.712 55.7096 198.362 55.943 197.988 56.139C197.615 56.3256 197.214 56.419 196.784 56.419ZM197.106 55.467C197.442 55.467 197.755 55.3923 198.044 55.243C198.343 55.0936 198.656 54.8743 198.982 54.585V52.751C198.217 52.8443 197.61 52.9656 197.162 53.115C196.724 53.255 196.406 53.4323 196.21 53.647C196.014 53.8616 195.916 54.1183 195.916 54.417C195.916 54.7903 196.033 55.061 196.266 55.229C196.5 55.3876 196.78 55.467 197.106 55.467ZM202.271 56.251V49.447H203.223L203.321 50.679H203.363C203.587 50.2496 203.867 49.909 204.203 49.657C204.539 49.405 204.903 49.279 205.295 49.279C205.444 49.279 205.575 49.2883 205.687 49.307C205.799 49.3256 205.911 49.363 206.023 49.419L205.771 50.399C205.668 50.371 205.57 50.3523 205.477 50.343C205.393 50.3243 205.281 50.315 205.141 50.315C204.852 50.315 204.548 50.4316 204.231 50.665C203.923 50.8983 203.652 51.3043 203.419 51.883V56.251H202.271ZM207.125 56.251V46.283H208.273V53.017H208.301L211.185 49.447H212.473L210.205 52.191L212.781 56.251H211.521L209.533 52.975L208.273 54.459V56.251H207.125ZM216.568 56.419C215.961 56.419 215.406 56.279 214.902 55.999C214.407 55.7096 214.015 55.3036 213.726 54.781C213.437 54.249 213.292 53.605 213.292 52.849C213.292 52.1116 213.441 51.477 213.74 50.945C214.039 50.413 214.421 50.0023 214.888 49.713C215.355 49.4236 215.849 49.279 216.372 49.279C216.951 49.279 217.441 49.4143 217.842 49.685C218.253 49.9463 218.561 50.315 218.766 50.791C218.971 51.267 219.074 51.827 219.074 52.471C219.074 52.5923 219.069 52.709 219.06 52.821C219.06 52.933 219.046 53.045 219.018 53.157H214.118V52.247H218.038C218.038 51.5936 217.893 51.0943 217.604 50.749C217.324 50.3943 216.918 50.217 216.386 50.217C216.078 50.217 215.775 50.3056 215.476 50.483C215.177 50.651 214.93 50.9263 214.734 51.309C214.547 51.6916 214.454 52.2003 214.454 52.835C214.454 53.4136 214.552 53.899 214.748 54.291C214.953 54.683 215.229 54.9816 215.574 55.187C215.919 55.383 216.297 55.481 216.708 55.481C217.035 55.481 217.338 55.4343 217.618 55.341C217.907 55.2476 218.169 55.1216 218.402 54.963L218.822 55.719C218.523 55.9243 218.187 56.0923 217.814 56.223C217.45 56.3536 217.035 56.419 216.568 56.419ZM222.761 56.377C222.042 56.377 221.538 56.167 221.249 55.747C220.959 55.327 220.815 54.781 220.815 54.109V50.385H219.807V49.517L220.871 49.447L221.011 47.263H221.977V49.447H223.825V50.385H221.977V54.123C221.977 54.5336 222.051 54.8556 222.201 55.089C222.359 55.3223 222.635 55.439 223.027 55.439C223.148 55.439 223.274 55.4296 223.405 55.411C223.535 55.383 223.666 55.3363 223.797 55.271L224.049 56.083C223.871 56.167 223.671 56.237 223.447 56.293C223.223 56.349 222.994 56.377 222.761 56.377ZM228.264 56.251V47.067H229.426V56.251H228.264ZM231.83 56.251V49.447H232.782L232.88 50.427H232.922C233.248 50.1003 233.594 49.8296 233.958 49.615C234.322 49.391 234.737 49.279 235.204 49.279C235.922 49.279 236.445 49.5076 236.772 49.965C237.108 50.413 237.276 51.071 237.276 51.939V56.251H236.128V52.093C236.128 51.449 236.025 50.987 235.82 50.707C235.624 50.4176 235.297 50.273 234.84 50.273C234.494 50.273 234.182 50.3616 233.902 50.539C233.631 50.7163 233.323 50.9776 232.978 51.323V56.251H231.83ZM241.628 56.377C240.909 56.377 240.405 56.167 240.116 55.747C239.827 55.327 239.682 54.781 239.682 54.109V50.385H238.674V49.517L239.738 49.447L239.878 47.263H240.844V49.447H242.692V50.385H240.844V54.123C240.844 54.5336 240.919 54.8556 241.068 55.089C241.227 55.3223 241.502 55.439 241.894 55.439C242.015 55.439 242.141 55.4296 242.272 55.411C242.403 55.383 242.533 55.3363 242.664 55.271L242.916 56.083C242.739 56.167 242.538 56.237 242.314 56.293C242.09 56.349 241.861 56.377 241.628 56.377ZM246.783 56.419C246.176 56.419 245.621 56.279 245.117 55.999C244.622 55.7096 244.23 55.3036 243.941 54.781C243.652 54.249 243.507 53.605 243.507 52.849C243.507 52.1116 243.656 51.477 243.955 50.945C244.254 50.413 244.636 50.0023 245.103 49.713C245.57 49.4236 246.064 49.279 246.587 49.279C247.166 49.279 247.656 49.4143 248.057 49.685C248.468 49.9463 248.776 50.315 248.981 50.791C249.186 51.267 249.289 51.827 249.289 52.471C249.289 52.5923 249.284 52.709 249.275 52.821C249.275 52.933 249.261 53.045 249.233 53.157H244.333V52.247H248.253C248.253 51.5936 248.108 51.0943 247.819 50.749C247.539 50.3943 247.133 50.217 246.601 50.217C246.293 50.217 245.99 50.3056 245.691 50.483C245.392 50.651 245.145 50.9263 244.949 51.309C244.762 51.6916 244.669 52.2003 244.669 52.835C244.669 53.4136 244.767 53.899 244.963 54.291C245.168 54.683 245.444 54.9816 245.789 55.187C246.134 55.383 246.512 55.481 246.923 55.481C247.25 55.481 247.553 55.4343 247.833 55.341C248.122 55.2476 248.384 55.1216 248.617 54.963L249.037 55.719C248.738 55.9243 248.402 56.0923 248.029 56.223C247.665 56.3536 247.25 56.419 246.783 56.419ZM252.188 56.377C251.899 56.377 251.666 56.321 251.488 56.209C251.311 56.0876 251.18 55.915 251.096 55.691C251.012 55.4576 250.97 55.1776 250.97 54.851V46.283H252.118V54.935C252.118 55.1216 252.151 55.2523 252.216 55.327C252.282 55.3923 252.361 55.425 252.454 55.425C252.492 55.425 252.524 55.425 252.552 55.425C252.59 55.4156 252.636 55.4063 252.692 55.397L252.86 56.265C252.776 56.293 252.678 56.3163 252.566 56.335C252.464 56.363 252.338 56.377 252.188 56.377ZM255.757 56.377C255.467 56.377 255.234 56.321 255.057 56.209C254.879 56.0876 254.749 55.915 254.665 55.691C254.581 55.4576 254.539 55.1776 254.539 54.851V46.283H255.687V54.935C255.687 55.1216 255.719 55.2523 255.785 55.327C255.85 55.3923 255.929 55.425 256.023 55.425C256.06 55.425 256.093 55.425 256.121 55.425C256.158 55.4156 256.205 55.4063 256.261 55.397L256.429 56.265C256.345 56.293 256.247 56.3163 256.135 56.335C256.032 56.363 255.906 56.377 255.757 56.377ZM258.107 56.251V49.447H259.255V56.251H258.107ZM258.681 48.047C258.457 48.047 258.27 47.977 258.121 47.837C257.981 47.697 257.911 47.515 257.911 47.291C257.911 47.067 257.981 46.885 258.121 46.745C258.27 46.605 258.457 46.535 258.681 46.535C258.905 46.535 259.087 46.605 259.227 46.745C259.376 46.885 259.451 47.067 259.451 47.291C259.451 47.515 259.376 47.697 259.227 47.837C259.087 47.977 258.905 48.047 258.681 48.047ZM263.848 59.387C263.298 59.387 262.808 59.3123 262.378 59.163C261.958 59.023 261.627 58.8176 261.384 58.547C261.151 58.2763 261.034 57.945 261.034 57.553C261.034 57.2636 261.123 56.9836 261.3 56.713C261.478 56.4516 261.72 56.2183 262.028 56.013V55.957C261.86 55.845 261.716 55.7003 261.594 55.523C261.482 55.3363 261.426 55.1123 261.426 54.851C261.426 54.5616 261.506 54.3096 261.664 54.095C261.832 53.8803 262 53.7123 262.168 53.591V53.535C261.954 53.3483 261.753 53.0963 261.566 52.779C261.38 52.4616 261.286 52.1023 261.286 51.701C261.286 51.2063 261.403 50.777 261.636 50.413C261.879 50.049 262.192 49.769 262.574 49.573C262.966 49.377 263.391 49.279 263.848 49.279C264.035 49.279 264.212 49.2976 264.38 49.335C264.548 49.363 264.693 49.4003 264.814 49.447H267.18V50.329H265.766V50.385C265.934 50.5343 266.07 50.721 266.172 50.945C266.284 51.169 266.34 51.435 266.34 51.743C266.34 52.2283 266.228 52.6483 266.004 53.003C265.78 53.3483 265.482 53.619 265.108 53.815C264.735 54.0016 264.315 54.095 263.848 54.095C263.68 54.095 263.508 54.0763 263.33 54.039C263.153 53.9923 262.985 53.9316 262.826 53.857C262.714 53.9596 262.612 54.0716 262.518 54.193C262.434 54.3143 262.392 54.473 262.392 54.669C262.392 54.8836 262.476 55.061 262.644 55.201C262.822 55.341 263.139 55.411 263.596 55.411H264.912C265.706 55.411 266.298 55.5416 266.69 55.803C267.092 56.055 267.292 56.4656 267.292 57.035C267.292 57.455 267.152 57.8423 266.872 58.197C266.592 58.5516 266.191 58.8363 265.668 59.051C265.155 59.275 264.548 59.387 263.848 59.387ZM263.848 53.325C264.11 53.325 264.348 53.2596 264.562 53.129C264.786 52.989 264.964 52.7976 265.094 52.555C265.225 52.3123 265.29 52.0276 265.29 51.701C265.29 51.197 265.15 50.8096 264.87 50.539C264.59 50.259 264.25 50.119 263.848 50.119C263.447 50.119 263.106 50.259 262.826 50.539C262.546 50.8096 262.406 51.197 262.406 51.701C262.406 52.0276 262.472 52.3123 262.602 52.555C262.733 52.7976 262.906 52.989 263.12 53.129C263.344 53.2596 263.587 53.325 263.848 53.325ZM264.016 58.589C264.446 58.589 264.819 58.5236 265.136 58.393C265.463 58.2623 265.715 58.0896 265.892 57.875C266.079 57.6603 266.172 57.4363 266.172 57.203C266.172 56.8856 266.051 56.6663 265.808 56.545C265.575 56.4236 265.239 56.363 264.8 56.363H263.624C263.494 56.363 263.349 56.3536 263.19 56.335C263.041 56.3163 262.892 56.2883 262.742 56.251C262.49 56.4283 262.308 56.615 262.196 56.811C262.094 57.007 262.042 57.203 262.042 57.399C262.042 57.763 262.215 58.0523 262.56 58.267C262.915 58.4816 263.4 58.589 264.016 58.589ZM271.174 56.419C270.567 56.419 270.012 56.279 269.508 55.999C269.013 55.7096 268.621 55.3036 268.332 54.781C268.042 54.249 267.898 53.605 267.898 52.849C267.898 52.1116 268.047 51.477 268.346 50.945C268.644 50.413 269.027 50.0023 269.494 49.713C269.96 49.4236 270.455 49.279 270.978 49.279C271.556 49.279 272.046 49.4143 272.448 49.685C272.858 49.9463 273.166 50.315 273.372 50.791C273.577 51.267 273.68 51.827 273.68 52.471C273.68 52.5923 273.675 52.709 273.666 52.821C273.666 52.933 273.652 53.045 273.624 53.157H268.724V52.247H272.644C272.644 51.5936 272.499 51.0943 272.21 50.749C271.93 50.3943 271.524 50.217 270.992 50.217C270.684 50.217 270.38 50.3056 270.082 50.483C269.783 50.651 269.536 50.9263 269.34 51.309C269.153 51.6916 269.06 52.2003 269.06 52.835C269.06 53.4136 269.158 53.899 269.354 54.291C269.559 54.683 269.834 54.9816 270.18 55.187C270.525 55.383 270.903 55.481 271.314 55.481C271.64 55.481 271.944 55.4343 272.224 55.341C272.513 55.2476 272.774 55.1216 273.008 54.963L273.428 55.719C273.129 55.9243 272.793 56.0923 272.42 56.223C272.056 56.3536 271.64 56.419 271.174 56.419ZM275.361 56.251V49.447H276.313L276.411 50.427H276.453C276.78 50.1003 277.125 49.8296 277.489 49.615C277.853 49.391 278.268 49.279 278.735 49.279C279.454 49.279 279.976 49.5076 280.303 49.965C280.639 50.413 280.807 51.071 280.807 51.939V56.251H279.659V52.093C279.659 51.449 279.556 50.987 279.351 50.707C279.155 50.4176 278.828 50.273 278.371 50.273C278.026 50.273 277.713 50.3616 277.433 50.539C277.162 50.7163 276.854 50.9776 276.509 51.323V56.251H275.361ZM285.719 56.419C285.112 56.419 284.566 56.279 284.081 55.999C283.596 55.719 283.213 55.313 282.933 54.781C282.653 54.249 282.513 53.6096 282.513 52.863C282.513 52.0976 282.662 51.449 282.961 50.917C283.269 50.385 283.67 49.979 284.165 49.699C284.669 49.419 285.21 49.279 285.789 49.279C286.237 49.279 286.62 49.3536 286.937 49.503C287.264 49.6523 287.544 49.8436 287.777 50.077L287.203 50.791C287.035 50.623 286.834 50.4923 286.601 50.399C286.377 50.2963 286.12 50.245 285.831 50.245C285.43 50.245 285.066 50.357 284.739 50.581C284.422 50.7956 284.17 51.099 283.983 51.491C283.796 51.883 283.703 52.3403 283.703 52.863C283.703 53.3763 283.792 53.829 283.969 54.221C284.146 54.613 284.394 54.921 284.711 55.145C285.028 55.3596 285.397 55.467 285.817 55.467C286.134 55.467 286.428 55.4063 286.699 55.285C286.97 55.1636 287.203 55.0096 287.399 54.823L287.903 55.523C287.614 55.7936 287.287 56.013 286.923 56.181C286.559 56.3396 286.158 56.419 285.719 56.419ZM291.873 56.419C291.266 56.419 290.711 56.279 290.207 55.999C289.712 55.7096 289.32 55.3036 289.031 54.781C288.741 54.249 288.597 53.605 288.597 52.849C288.597 52.1116 288.746 51.477 289.045 50.945C289.343 50.413 289.726 50.0023 290.193 49.713C290.659 49.4236 291.154 49.279 291.677 49.279C292.255 49.279 292.745 49.4143 293.147 49.685C293.557 49.9463 293.865 50.315 294.071 50.791C294.276 51.267 294.379 51.827 294.379 52.471C294.379 52.5923 294.374 52.709 294.365 52.821C294.365 52.933 294.351 53.045 294.323 53.157H289.423V52.247H293.343C293.343 51.5936 293.198 51.0943 292.909 50.749C292.629 50.3943 292.223 50.217 291.691 50.217C291.383 50.217 291.079 50.3056 290.781 50.483C290.482 50.651 290.235 50.9263 290.039 51.309C289.852 51.6916 289.759 52.2003 289.759 52.835C289.759 53.4136 289.857 53.899 290.053 54.291C290.258 54.683 290.533 54.9816 290.879 55.187C291.224 55.383 291.602 55.481 292.013 55.481C292.339 55.481 292.643 55.4343 292.923 55.341C293.212 55.2476 293.473 55.1216 293.707 54.963L294.127 55.719C293.828 55.9243 293.492 56.0923 293.119 56.223C292.755 56.3536 292.339 56.419 291.873 56.419Z" fill="#D59707"/>
<defs>
<clipPath id="clip0_134_1108">
<rect width="58.9768" height="72.7499" fill="white" transform="translate(6.02319 4.21582)"/>
</clipPath>
</defs>
</svg>
